<svg width="153" height="153" viewBox="0 0 153 153" fill="none" xmlns="http://www.w3.org/2000/svg">
<path fill-rule="evenodd" clip-rule="evenodd" d="M93.6001 44.28C86.4001 44.28 81.0001 38.52 81.0001 31.68C81.0001 30.24 79.9201 29.16 78.4801 29.16C77.0401 29.16 75.9601 30.24 75.9601 31.68C75.9601 38.88 70.2001 44.28 63.3601 44.28C61.9201 44.28 60.8401 45.36 60.8401 46.8C60.8401 48.24 61.9201 49.32 63.3601 49.32C70.5601 49.32 75.9601 55.08 75.9601 61.92C75.9601 63.36 77.0401 64.44 78.4801 64.44C79.9201 64.44 81.0001 63.36 81.0001 61.92C81.0001 54.72 86.7601 49.32 93.6001 49.32C95.0401 49.32 96.1201 48.24 96.1201 46.8C96.1201 45.36 95.0401 44.28 93.6001 44.28ZM78.8401 52.92C77.4001 50.4 75.2401 48.24 72.7201 46.8C75.2401 45.36 77.4001 43.2 78.8401 40.68C80.2801 43.2 82.4401 45.36 84.9601 46.8C82.4401 48.24 80.2801 50.4 78.8401 52.92Z" fill="#1D1F24"/>
<path d="M45.7198 47.88L50.0398 46.8C52.1998 55.8 54.7198 63.72 58.3198 69.48L54.3598 71.64C50.7598 65.52 47.8798 57.6 45.7198 47.88Z" fill="#1D1F24"/>
<path d="M57.78 77.22C57.15 76.32 56.52 75.42 55.8 74.52L59.76 72C60.2664 72.844 60.8519 73.6088 61.4053 74.3316C62.0321 75.1504 62.6176 75.9152 63 76.68L59.76 79.92C59.04 79.02 58.41 78.12 57.78 77.22Z" fill="#1D1F24"/>
<path fill-rule="evenodd" clip-rule="evenodd" d="M122.4 10.8C125.28 10.08 129.6 9 134.28 9C146.16 9 153 16.2 153 29.16C153 42.12 150.12 53.28 143.64 63C137.88 72.36 130.32 78.12 125.28 81.36C117 86.4 108.72 87.48 103.32 87.48C102.548 87.48 101.777 87.3766 101.06 87.2807C100.44 87.1976 99.8612 87.12 99.36 87.12C96.84 90 93.96 92.16 90.72 93.96C88.56 95.4 87.12 97.56 86.4 100.08C89.64 101.16 91.8 104.04 91.8 107.28C91.8 110.88 89.64 113.76 86.4 114.48V123.84H98.28V133.92H110.52V153H41.76V133.92H54V123.84H66.24V114.48C63 113.76 60.84 110.88 60.84 107.28C60.84 104.04 63.36 101.16 66.24 100.08C65.88 97.56 64.08 95.4 61.92 93.96C58.68 92.16 55.8 90 53.28 87.12H52.92C51.48 87.48 50.4 87.48 48.9601 87.48C43.5601 87.48 35.28 86.4 27 81.36C21.96 78.12 14.4 72.36 8.64 63C2.88 53.28 0 41.76 0 29.16C0 16.2 6.84 9 18.72 9C23.4 9 27.72 10.08 30.6 10.8C30.24 5.4 30.24 2.16 30.24 2.16V0H122.4V10.8ZM118.08 4.68H35.28V7.92H118.08V4.68ZM131.76 23.4C128.16 23.4 124.2 24.48 120.96 25.56C119.52 39.96 116.28 57.96 109.44 72.72C112.68 72.36 116.64 71.28 120.24 69.12C130.68 62.28 137.52 49.68 139.68 33.84C140.04 29.88 139.68 27.36 138.24 25.56C136.8 24.12 134.64 23.4 131.76 23.4ZM43.2 71.64C39.6 63.36 36.36 52.92 34.2 41.04C33.12 35.64 32.4 30.24 32.04 25.2C28.8 24.12 24.84 23.04 21.24 23.04C18 23.04 15.84 23.76 14.76 25.2C13.32 27 12.96 29.52 13.32 33.48C15.48 49.68 22.32 61.92 32.76 68.76C36.36 70.92 40.32 72 43.56 72.36C43.56 72.18 43.47 72.09 43.38 72C43.29 71.91 43.2 71.82 43.2 71.64ZM29.16 77.4C36.72 81.72 43.92 82.8 48.96 82.8H49.68C49.5425 82.8 49.4575 82.7475 49.3849 82.7026C49.2675 82.63 49.1825 82.5775 48.96 82.8C49.1704 82.3791 49.2579 82.2043 49.2223 82.0597C49.197 81.957 49.1096 81.8696 48.96 81.72C48.96 81.54 48.87 81.45 48.78 81.36C48.69 81.27 48.6 81.18 48.6 81C48.6 80.82 48.51 80.73 48.42 80.64C48.33 80.55 48.24 80.46 48.24 80.28C47.88 80.28 47.88 79.92 47.88 79.92C47.7 79.74 47.61 79.56 47.52 79.38C47.43 79.2 47.34 79.02 47.16 78.84C46.8 78.84 46.8 78.48 46.8 78.48C46.62 78.3 46.53 78.12 46.44 77.94C46.35 77.76 46.26 77.58 46.08 77.4C41.76 77.04 35.64 76.32 30.24 72.72C24.48 69.12 19.8 64.08 16.2 57.6C12.24 51.12 9.72 43.2 8.64 34.2C7.92 29.16 8.64 24.84 11.16 22.32C13.32 19.8 16.56 18.72 20.88 18.72C24.12 18.72 27.72 19.44 30.96 20.52C30.96 19.5699 30.8597 18.72 30.765 17.9176C30.6803 17.1998 30.6 16.5199 30.6 15.84C28.44 15.12 23.4 13.68 18.36 13.68C9 13.68 4.32 18.72 4.32 29.16C3.96 59.04 21.6 72.72 29.16 77.4ZM94.32 133.92V128.52H58.68V133.92H94.32ZM84.6 109.8C86.04 109.8 87.48 108.72 87.48 106.92C87.48 105.48 86.04 104.04 84.6 104.04H68.4C66.96 104.04 65.52 105.48 65.52 106.92C65.52 108.36 66.6 109.8 68.4 109.8H84.6ZM98.28 81.54C98.37 81.36 98.46 81.18 98.64 81C100.44 78.84 101.88 76.68 102.96 73.44L103.68 72.36C111.24 57.96 114.48 39.24 116.28 24.48V23.04C116.64 20.88 117 18.36 117 16.2V12.24H34.56C35.64 26.64 38.52 54 48.24 72.72L48.96 73.8C51.12 77.4 53.28 80.64 55.44 83.16L56.16 83.88C58.32 86.4 60.84 88.56 63.72 90C67.32 92.16 69.84 95.76 70.56 99.72H82.08C82.8 95.4 85.32 92.16 88.92 90C91.8 88.2 94.68 86.04 97.2 83.16C97.4225 83.16 97.5075 83.0225 97.6249 82.8325C97.6975 82.715 97.7825 82.5775 97.92 82.44V82.08C98.1 81.9 98.19 81.72 98.28 81.54ZM103.68 82.8C108.72 82.8 115.92 81.72 123.48 77.4C131.04 72.72 148.68 59.04 147.96 29.52C147.96 19.08 143.28 14.04 133.92 14.04C128.88 14.04 123.84 15.48 121.68 16.2C121.68 16.92 121.59 17.64 121.5 18.36C121.41 19.08 121.32 19.8 121.32 20.52C124.2 19.44 128.16 18.72 131.4 18.72C135.72 18.72 138.96 19.8 141.12 22.32C143.64 24.84 144.36 29.16 143.64 34.2C142.56 43.2 140.04 51.12 136.08 57.6C132.48 64.08 127.8 69.12 122.04 72.72C116.28 76.32 110.52 77.4 106.2 77.4V77.76C106.02 77.94 105.93 78.12 105.84 78.3C105.75 78.48 105.66 78.66 105.48 78.84V79.2C105.3 79.38 105.21 79.56 105.12 79.74C105.03 79.92 104.94 80.1 104.76 80.28C104.4 80.28 104.4 80.64 104.4 80.64C104.22 80.82 104.13 81 104.04 81.18C103.95 81.36 103.86 81.54 103.68 81.72C103.68 82.08 103.32 82.44 102.96 82.8H103.68Z" fill="#1D1F24"/>
<path d="M21.2398 84.24H16.9198V88.92H21.2398V84.24Z" fill="#1D1F24"/>
<path d="M130.68 89.28H126V93.24H122.04V97.92H126V101.88H130.68V97.92H134.64V93.24H130.68V89.28Z" fill="#1D1F24"/>
<path d="M117.72 111.6H113.4V116.28H117.72V111.6Z" fill="#1D1F24"/>
<path d="M28.0801 113.76H32.7601V117H36.0001V121.68H32.7601V124.92H28.0801V121.68H24.8401V117H28.0801V113.76Z" fill="#1D1F24"/>
<path d="M48.6002 97.92H44.2802V102.6H48.6002V97.92Z" fill="#1D1F24"/>
</svg>
