<svg width="126" height="129" viewBox="0 0 126 129" fill="none" xmlns="http://www.w3.org/2000/svg">
<path d="M20.5982 41.28C25.3746 41.28 28.9569 45.2259 28.9569 49.7788C28.9569 54.6353 25.0761 58.2776 20.5982 58.2776C16.1203 58.2776 12.2395 54.3318 12.2395 49.7788C12.2395 44.9224 15.8218 41.28 20.5982 41.28ZM20.5982 62.8306C27.4643 62.8306 33.4347 57.0635 33.4347 49.7788C33.4347 42.7976 27.7628 36.7271 20.5982 36.7271C13.4336 36.7271 7.76164 42.4941 7.76164 49.7788C7.76164 56.76 13.4336 62.5271 20.5982 62.8306ZM28.9569 10.32C30.151 12.4447 31.9421 14.2659 34.0318 15.48C31.9421 16.6941 30.151 18.5153 28.9569 20.64C27.7628 18.5153 25.9716 16.6941 23.882 15.48C25.9716 13.9624 27.7628 12.4447 28.9569 10.32ZM16.4188 17.6047C22.3893 17.6047 26.8672 22.4612 26.8672 28.2282C26.8672 29.4424 27.7628 30.3529 28.9569 30.3529C30.151 30.3529 31.0465 29.4424 31.0465 28.2282C31.0465 22.1576 35.8229 17.6047 41.4949 17.6047C42.689 17.6047 43.5846 16.6941 43.5846 15.48C43.5846 14.2659 42.689 13.3553 41.4949 13.3553C35.5244 13.3553 31.0465 8.49882 31.0465 2.73176C31.0465 1.51765 30.151 0.607059 28.9569 0.607059C27.7628 0.607059 26.8672 1.51765 26.8672 2.73176C26.8672 8.80235 22.0908 13.3553 16.4188 13.3553C15.2247 13.3553 14.3292 14.2659 14.3292 15.48C14.3292 16.6941 15.2247 17.6047 16.4188 17.6047ZM88.3633 115.038C87.1692 112.913 85.378 111.092 83.2883 109.878C85.378 108.664 87.1692 106.842 88.3633 104.718C89.5574 106.842 91.3485 108.664 93.4382 109.878C91.3485 111.395 89.5574 112.913 88.3633 115.038ZM100.901 107.753C94.9308 107.753 90.4529 102.896 90.4529 97.1294C90.4529 95.9153 89.5574 95.0047 88.3633 95.0047C87.1692 95.0047 86.2736 95.9153 86.2736 97.1294C86.2736 103.2 81.4972 107.753 75.8252 107.753C74.6311 107.753 73.7355 108.664 73.7355 109.878C73.7355 111.092 74.6311 112.002 75.8252 112.002C81.7957 112.002 86.2736 116.859 86.2736 122.626C86.2736 123.84 87.1692 124.751 88.3633 124.751C89.5574 124.751 90.4529 123.84 90.4529 122.626C90.4529 116.555 95.2293 112.002 100.901 112.002C102.095 112.002 102.991 111.092 102.991 109.878C102.991 108.967 102.095 107.753 100.901 107.753ZM50.1521 43.4047C46.5698 43.4047 43.8831 46.44 43.8831 49.7788V58.2776H33.4347V62.5271H46.2713C47.4654 62.5271 48.361 61.6165 48.361 60.4024V49.7788C48.361 48.5647 49.2565 47.6541 50.4506 47.6541C51.6447 47.6541 52.5403 48.5647 52.5403 49.7788V64.9553C52.5403 66.1694 51.6447 67.08 50.4506 67.08H33.4347C32.2406 67.08 31.3451 67.9906 31.3451 69.2047V79.8282C31.3451 80.4353 31.6436 81.0424 31.9421 81.3459L43.2861 92.88C43.5846 93.1835 43.8831 93.7906 43.8831 94.3976V114.127C43.8831 115.341 42.9875 116.252 41.7934 116.252C40.5993 116.252 39.7038 115.341 39.7038 114.127V96.8259C39.7038 96.2188 39.4052 95.6118 39.1067 95.3082L30.748 86.8094C29.8525 85.8988 28.6584 85.8988 27.7628 86.8094L21.4938 93.1835C20.5982 94.0941 20.5982 95.3082 21.4938 96.2188L26.5687 101.379C26.8672 101.682 27.1657 102.289 27.1657 102.896V122.626C27.1657 123.84 26.2702 124.751 25.0761 124.751C23.882 124.751 22.9864 123.84 22.9864 122.626V105.325C22.9864 104.718 22.6879 104.111 22.3893 103.807L13.1351 94.3976C12.8366 94.0941 12.538 93.4871 12.538 92.88V86.2023H16.7174C20.2997 86.2023 22.9864 83.1671 22.9864 79.8282C22.9864 76.1859 20.0011 73.4541 16.7174 73.4541H12.538V67.08H8.35869V75.5788C8.35869 76.7929 9.25426 77.7035 10.4484 77.7035H16.7174C17.9115 77.7035 18.807 78.6141 18.807 79.8282C18.807 81.0424 17.9115 81.9529 16.7174 81.9529H6.26901C5.07492 81.9529 4.17934 81.0424 4.17934 79.8282V64.6518C4.17934 63.4376 5.07492 62.5271 6.26901 62.5271V58.2776C2.68672 58.2776 0 61.3129 0 64.6518V79.8282C0 83.4706 2.98524 86.2023 6.26901 86.2023H8.35869V92.88C8.35869 94.7012 8.95574 96.2188 10.1498 97.4329L18.807 106.235V122.626C18.807 126.268 21.7923 129 25.0761 129C28.6583 129 31.3451 125.965 31.3451 122.626V102.896C31.3451 101.075 30.748 99.5576 29.5539 98.3435L25.9716 94.7012L29.2554 91.3624L35.5244 97.7365V114.127C35.5244 117.769 38.5097 120.501 41.7934 120.501C45.3757 120.501 48.0624 117.466 48.0624 114.127V94.3976C48.0624 92.5765 47.4654 91.0588 46.2713 89.8447L35.2259 78.9176V71.3294H50.1521C53.7344 71.3294 56.4211 68.2941 56.4211 64.9553V49.7788C56.4211 46.1365 53.7344 43.4047 50.1521 43.4047ZM96.7219 4.55294C101.498 4.55294 105.081 8.49882 105.081 13.0518C105.081 17.9082 101.2 21.5506 96.7219 21.5506C91.9455 21.5506 88.3633 17.6047 88.3633 13.0518C88.3633 8.49882 91.9455 4.55294 96.7219 4.55294ZM96.7219 26.1035C103.588 26.1035 109.558 20.3365 109.558 13.0518C109.558 6.07059 103.887 0 96.7219 0C89.8559 0 83.8854 5.76706 83.8854 13.0518C83.8854 20.3365 89.8559 26.1035 96.7219 26.1035ZM120.007 21.8541H107.17V26.1035H120.007C121.201 26.1035 122.097 27.0141 122.097 28.2282V41.28C122.097 42.4941 121.201 43.4047 120.007 43.4047C118.813 43.4047 117.917 42.4941 117.917 41.28V32.7812C117.917 31.5671 117.022 30.6565 115.828 30.6565H107.469C106.275 30.6565 105.379 31.5671 105.379 32.7812V56.76C105.379 57.3671 105.081 57.9741 104.782 58.2776L97.6175 65.5624C96.7219 66.4729 96.7219 67.6871 97.6175 68.5976L107.17 78.3106C108.066 79.2212 108.066 80.4353 107.17 81.3459L106.872 81.6494C105.976 82.56 104.782 82.56 103.887 81.6494L90.7514 68.2941C89.8559 67.3835 89.8559 66.1694 90.7514 65.2588L96.1249 59.7953C97.0205 58.8847 97.0205 57.6706 96.1249 56.76L89.8559 50.3859C88.9603 49.4753 87.7662 49.4753 86.8706 50.3859L78.5119 58.8847C78.2134 59.1882 77.9149 59.7953 77.9149 60.4024V77.7035C77.9149 78.9176 77.0193 79.8282 75.8252 79.8282C74.6311 79.8282 73.7355 78.9176 73.7355 77.7035V57.9741C73.7355 57.3671 74.0341 56.76 74.3326 56.4565L85.6765 44.9224C85.9751 44.6188 86.2736 44.0118 86.2736 43.4047V32.7812C86.2736 31.5671 85.378 30.6565 84.1839 30.6565H71.3474C70.1533 30.6565 69.2577 29.7459 69.2577 28.5318V13.3553C69.2577 12.1412 70.1533 11.2306 71.3474 11.2306C72.5415 11.2306 73.437 12.1412 73.437 13.3553V23.9788C73.437 25.1929 74.3326 26.1035 75.5267 26.1035H83.8854V21.8541H77.6164V13.3553C77.6164 9.71294 74.6311 6.98118 71.3474 6.98118C68.0636 6.98118 65.0783 10.0165 65.0783 13.3553V28.5318C65.0783 32.1741 68.0636 34.9059 71.3474 34.9059H81.7957V42.4941L71.0488 53.4212C69.8547 54.6353 69.2577 56.1529 69.2577 57.9741V77.7035C69.2577 81.3459 72.2429 84.0776 75.5267 84.0776C78.8105 84.0776 81.7957 81.0424 81.7957 77.7035V61.3129L88.0647 54.9388L91.3485 58.2776L87.4677 62.2235C85.0795 64.6518 85.0795 68.9012 87.4677 71.3294L100.603 84.6847C102.991 87.1129 107.17 87.1129 109.558 84.6847L109.857 84.3812C112.245 81.9529 112.245 77.7035 109.857 75.2753L101.797 67.08L107.469 61.3129C108.663 60.0988 109.26 58.5812 109.26 56.76V34.9059H113.439V41.28C113.439 44.9224 116.425 47.6541 119.708 47.6541C122.992 47.6541 125.977 44.6188 125.977 41.28V28.2282C126.276 24.5859 123.589 21.8541 120.007 21.8541ZM94.6323 17.6047H98.8116V11.2306H94.6323V17.6047ZM26.8672 51.9035V45.5294H22.6879V49.7788H18.5085V54.0282H24.7775C25.9716 54.0282 26.8672 53.1176 26.8672 51.9035Z" fill="#1D1F24"/>
</svg>
