<svg width="141" height="141" viewBox="0 0 141 141" fill="none" xmlns="http://www.w3.org/2000/svg">
<path fill-rule="evenodd" clip-rule="evenodd" d="M69.0881 27.4027C70.0846 28.3992 71.4132 28.3992 72.4096 27.4027L84.6993 15.113C87.6887 11.7915 87.6887 6.14485 84.3672 2.49115C80.7135 -0.830385 75.0669 -0.830385 71.4132 2.49115L70.4167 3.48762L69.4202 2.49115C65.7666 -0.830385 60.1199 -0.830385 56.7984 2.49115C53.1447 6.14485 53.1447 11.7915 56.7984 15.113L69.0881 27.4027ZM59.7878 5.81269C60.4521 5.14839 61.7807 4.48408 62.7772 4.48408C63.7736 4.48408 65.1022 4.81623 65.7666 5.81269L68.4238 8.46993C69.4203 9.46639 70.7489 9.46639 71.7453 8.46993L74.7347 5.81269C76.3955 4.15192 79.0527 4.15192 80.7135 5.81269C81.3778 6.477 82.0421 7.80562 82.0421 8.80208C82.0421 10.1307 81.7099 11.1272 81.0456 12.1236L70.4167 22.4204L59.7878 11.7915C58.127 10.1307 58.127 7.47346 59.7878 5.81269ZM39.8584 18.7664H35.2082V23.4165H39.8584V18.7664ZM56.4661 53.975H51.8159V58.6252H56.4661V53.975ZM4.65024 91.5086H9.30039V96.1587H4.65024V91.5086ZM51.8159 58.6248H47.1657V63.275H51.8159V58.6248ZM4.65024 100.809H9.30039V105.459H4.65024V100.809ZM4.65016 96.1584H0V100.809H4.65016V96.1584ZM42.1834 53.975H46.8335V58.6252H42.1834V53.975ZM91.6743 42.3496H87.0242V46.9998H91.6743V42.3496ZM103.3 18.7664H107.95V23.4165H103.3V18.7664ZM96.3246 46.9995H91.6744V51.6496H96.3246V46.9995ZM87.0242 51.6501H91.6743V56.3003H87.0242V51.6501ZM86.692 46.9995H82.0419V51.6496H86.692V46.9995ZM47.1657 49.3252H51.8159V53.9753H47.1657V49.3252ZM96.3246 140.999V122.066C96.3246 107.784 107.95 96.1584 122.233 96.1584V100.809C110.275 100.809 100.975 110.441 100.975 122.066V140.999H96.3246ZM13.9506 96.1584H9.30047V100.809H13.9506V96.1584ZM126.883 96.1584H131.533V100.809H126.883V96.1584ZM107.95 86.8579H103.3V91.5081H107.95V86.8579ZM136.183 96.1584H140.833V100.809H136.183V96.1584ZM129.208 28.0668H124.558C124.558 34.7099 119.243 39.6922 112.932 39.6922V44.3424C119.575 44.3424 124.558 49.6569 124.558 55.9678H129.208C129.208 49.3247 134.522 44.3424 140.833 44.3424V39.6922C134.522 39.6922 129.208 34.7099 129.208 28.0668ZM126.883 47.9961C125.554 45.671 123.561 43.6781 121.236 42.3495C123.561 41.0209 125.554 39.0279 126.883 36.7029C128.211 39.0279 130.204 41.0209 132.529 42.3495C130.204 43.6781 128.211 45.671 126.883 47.9961ZM131.533 91.5086H136.183V96.1587H131.533V91.5086ZM116.586 55.6358L113.264 52.3142C93.0029 72.2435 82.0419 99.1479 82.0419 127.381V140.999H86.692V127.381C86.692 100.477 97.3209 74.9007 116.254 55.9679L116.586 55.6358ZM131.533 100.809H136.183V105.459H131.533V100.809ZM18.9326 96.1584V100.809C30.558 100.809 40.1905 110.109 40.1905 122.066V140.999H44.8406V122.066C44.5085 107.784 32.8831 96.1584 18.9326 96.1584ZM30.558 84.533H35.2082V89.1832H30.558V84.533ZM27.9009 44.3424V39.6922C21.59 39.6922 16.6077 34.7099 16.2755 28.0668H11.6254C11.6254 34.7099 6.31093 39.6922 0 39.6922V44.3424C6.64308 44.3424 11.6254 49.6569 11.6254 55.9678H16.2755C16.2755 49.3247 21.59 44.3424 27.9009 44.3424ZM13.9505 47.9961C12.6218 45.671 10.6289 43.6781 8.30385 42.3495C10.6289 41.0209 12.6218 39.0279 13.9505 36.7029C15.2791 39.0279 17.272 41.0209 19.5971 42.3495C17.272 43.6781 15.6112 45.671 13.9505 47.9961ZM79.7169 77.5583H84.3671V82.2084H79.7169V77.5583ZM72.7417 32.7175H68.0916V140.668H72.7417V32.7175ZM24.5796 55.9683L24.2474 55.6361L27.9011 52.6467C47.4982 72.2438 58.7914 99.1483 58.7914 127.381V141H54.1413V127.381C54.1413 100.477 43.5123 74.901 24.5796 55.9683Z" fill="#1D1F24"/>
</svg>
