<svg width="148" height="126" viewBox="0 0 148 126" fill="none" xmlns="http://www.w3.org/2000/svg">
<path d="M143.136 90.7629H140.357C138.967 90.7629 137.577 89.7207 137.577 87.9836V85.2042H142.789L143.136 90.7629ZM123.333 120.641C117.775 120.641 113.258 116.124 113.258 110.566C113.258 105.007 117.775 100.491 123.333 100.491C128.892 100.491 133.408 105.007 133.408 110.566C133.408 116.124 128.892 120.641 123.333 120.641ZM42.0376 120.641C36.4789 120.641 31.9624 116.124 31.9624 110.566C31.9624 105.007 36.4789 100.491 42.0376 100.491C47.5962 100.491 52.1127 105.007 52.1127 110.566C52.1127 116.124 47.5962 120.641 42.0376 120.641ZM108.394 71.3075V56.3686H128.892L132.714 71.3075H108.394ZM108.394 46.2934H125.765C128.545 46.2934 130.977 48.7254 130.977 51.5047H108.394V46.2934ZM63.2301 26.838C65.662 19.8897 69.1362 9.81455 71.2207 7.03521C73.3052 4.25587 77.1268 3.90845 79.9061 5.99296C82.6854 8.07747 83.0329 11.8991 80.9484 14.6784C80.2535 15.7207 77.4742 18.5 68.4413 24.0587C66.7042 24.7535 64.9671 25.7958 63.2301 26.838ZM50.0282 23.7113C40.9953 18.1526 38.216 15.3732 37.5211 14.331C35.4366 11.5516 36.1315 7.73005 38.5634 5.64554C39.6056 4.95071 40.9953 4.25587 42.385 4.25587C44.1221 4.25587 46.2066 4.9507 47.2488 6.68779C49.3333 9.46714 53.1549 19.5423 55.2394 26.4906C53.8498 25.7958 52.1127 24.7535 50.0282 23.7113ZM137.577 71.3075L133.756 56.0211C134.798 55.6737 135.493 54.9789 135.493 53.9366V51.5047C135.493 46.2934 130.977 41.777 125.765 41.777H108.394V36.5657C108.394 33.7864 106.31 31.7019 103.531 31.7019H71.2207L91.0235 23.7113C92.0657 23.3638 92.7606 21.9742 92.4131 20.5845C92.0657 19.5423 90.6761 18.8474 89.2864 19.1948L73.3052 26.1432C78.169 23.0164 83.0329 19.5423 84.77 17.1103C88.2441 12.2465 87.5493 5.64554 82.6854 2.17136C77.8216 -1.30282 71.2207 -0.607982 67.7465 4.25587C64.9671 7.73005 61.493 17.4577 59.4084 24.0587C57.3239 17.1103 53.8498 7.38263 51.0704 4.25587C47.5962 -0.607982 40.6479 -1.30282 36.1315 2.17136C31.2676 5.64554 30.5728 12.5939 34.047 17.1103C35.784 19.5423 40.6479 23.0164 45.5117 26.1432L29.5305 19.5423C28.4883 19.1948 27.0986 19.5423 26.4038 20.9319C26.0563 21.9742 26.4038 23.3638 27.7934 24.0587L47.5962 32.0493H15.2864C12.507 32.0493 10.4225 34.1338 10.4225 36.9132V78.9507C10.4225 80.3404 11.4648 81.3826 12.8545 81.3826C14.2441 81.3826 15.2864 80.3404 15.2864 78.9507V36.5657H103.878V78.6033C103.878 79.993 104.92 81.0352 106.31 81.0352C107.7 81.0352 108.742 79.993 108.742 78.6033V75.824H135.84C139.315 75.824 142.094 77.9085 143.136 81.0352H135.84C134.451 81.0352 133.408 82.0775 133.408 83.4671V88.331C133.408 92.5 136.535 95.6268 140.704 95.6268H143.484V105.702H137.577C135.493 100.143 130.282 95.9742 123.681 95.9742C117.427 95.9742 111.869 100.143 109.784 105.702H108.742V88.331C108.742 86.9413 107.7 85.8991 106.31 85.8991C104.92 85.8991 103.878 86.9413 103.878 88.331V105.702H55.9343C53.8498 100.143 48.6385 95.9742 42.0376 95.9742C35.784 95.9742 30.2254 100.143 28.1408 105.702H14.939V100.491H24.6667C26.0563 100.491 27.0986 99.4484 27.0986 98.0587C27.0986 96.669 26.0563 95.6268 24.6667 95.6268H2.43192C1.04225 95.6268 0 96.669 0 98.0587C0 99.4484 1.04225 100.491 2.43192 100.491H10.0751V105.702C10.0751 108.481 12.1596 110.566 14.939 110.566H27.446C27.446 118.556 34.0469 125.157 42.0376 125.157C50.0282 125.157 56.6291 118.556 56.6291 110.566H108.742C108.742 118.556 115.343 125.157 123.333 125.157C131.324 125.157 137.925 118.556 137.925 110.566H145.568C146.958 110.566 148 109.523 148 108.134V83.4671C148 77.2136 143.484 72.3498 137.577 71.3075ZM42.0376 105.702C39.2582 105.702 37.1737 107.786 37.1737 110.566C37.1737 113.345 39.2582 115.43 42.0376 115.43C44.8169 115.43 46.9014 113.345 46.9014 110.566C46.9014 107.786 44.8169 105.702 42.0376 105.702ZM123.333 105.702C120.554 105.702 118.469 107.786 118.469 110.566C118.469 113.345 120.554 115.43 123.333 115.43C126.113 115.43 128.197 113.345 128.197 110.566C128.197 107.786 126.113 105.702 123.333 105.702ZM96.2347 95.9742H61.8404C60.4507 95.9742 59.4084 97.0164 59.4084 98.4061C59.4084 99.7958 60.4507 100.838 61.8404 100.838H96.2347C97.6244 100.838 98.6667 99.7958 98.6667 98.4061C98.6667 97.0164 97.6244 95.9742 96.2347 95.9742ZM37.1737 85.8991H7.64319C6.25352 85.8991 5.21127 86.9413 5.21127 88.331C5.21127 89.7207 6.25352 90.7629 7.64319 90.7629H37.1737C38.5634 90.7629 39.6056 89.7207 39.6056 88.331C39.6056 86.9413 38.5634 85.8991 37.1737 85.8991ZM59.4084 59.8427C60.7981 62.2747 62.8826 64.3592 65.3146 65.7488C62.8826 67.1385 60.7981 69.223 59.4084 71.6549C58.0188 69.223 55.9343 67.1385 53.5023 65.7488C55.9343 64.3592 58.0188 62.2747 59.4084 59.8427ZM44.8169 68.1808C51.7653 68.1808 56.9765 73.7394 56.9765 80.3404C56.9765 81.73 58.0188 82.7723 59.4084 82.7723C60.7981 82.7723 61.8404 81.73 61.8404 80.3404C61.8404 73.392 67.3991 68.1808 74 68.1808C75.3897 68.1808 76.4319 67.1385 76.4319 65.7488C76.4319 64.3592 75.3897 63.3169 74 63.3169C67.0516 63.3169 61.8404 57.7582 61.8404 51.1573C61.8404 49.7676 60.7981 48.7254 59.4084 48.7254C58.0188 48.7254 56.9765 49.7676 56.9765 51.1573C56.9765 58.1056 51.4178 63.3169 44.8169 63.3169C43.4272 63.3169 42.385 64.3592 42.385 65.7488C42.385 67.1385 43.4272 68.1808 44.8169 68.1808ZM96.2347 54.9789V50.4624H92.4131V46.6408H87.8967V50.4624H84.0751V54.9789H87.8967V58.8005H92.4131V54.9789H96.2347ZM23.9718 79.993H28.1408V75.4765H23.9718V79.993Z" fill="#1D1F24"/>
</svg>
