<svg width="143" height="143" viewBox="0 0 143 143" fill="none" xmlns="http://www.w3.org/2000/svg">
<path fill-rule="evenodd" clip-rule="evenodd" d="M116.146 49.4612H128.901C129.573 49.4612 129.908 49.4612 130.244 49.7976C130.58 50.1341 130.915 50.4706 130.915 51.1435C130.915 61.5741 127.894 73.3506 122.188 85.8C121.852 86.8094 120.509 87.1459 119.502 86.8094C118.495 86.4729 118.16 85.1271 118.495 84.1176C123.53 73.0141 126.552 62.5835 126.887 53.1624H26.5189C23.6079 60.457 19.1823 71.294 16.0879 78.8713C15.614 80.0317 15.1713 81.1157 14.77 82.0988C14.4344 82.4353 14.77 83.1082 14.77 83.1082C14.77 83.4447 15.1057 83.7812 15.7771 83.7812H24.1691C25.1761 83.7812 25.8475 84.4541 26.1832 85.4635C26.1832 85.8 29.54 104.979 32.2254 111.708C35.9179 121.466 51.6949 117.765 51.6949 117.765C52.3662 117.765 53.0376 117.765 53.3733 118.101C54.0446 118.438 54.3803 118.774 54.3803 119.447L57.7371 138.962H111.11L106.075 106.998C106.075 106.661 106.075 105.988 106.411 105.652C109.768 100.941 112.789 96.2306 115.138 91.8565C115.474 90.8471 116.817 90.5106 117.824 91.1835C118.831 91.52 119.167 92.8659 118.495 93.8753C116.725 97.171 114.573 100.467 112.328 103.906C111.593 105.032 110.848 106.173 110.103 107.334L115.138 140.981C115.138 141.654 115.138 142.327 114.803 142.327C114.467 142.664 113.796 143 113.124 143H56.0587C55.0517 143 54.3803 142.327 54.0446 141.318L50.6878 122.139C49.0094 122.475 45.9883 122.812 42.9672 122.475C35.5822 121.802 30.547 118.774 28.5329 113.054C26.3821 107.51 23.95 95.2007 22.7813 89.2855C22.6732 88.7385 22.5759 88.2461 22.4907 87.8188H15.7771C14.0987 87.8188 12.4203 86.8094 11.4132 85.4635C10.4062 84.1176 10.4062 82.0988 11.0776 80.4165C12.3598 77.1319 14.1863 72.6957 16.095 68.0597C18.6835 61.7728 21.4232 55.1185 23.1621 50.4706C23.4977 49.7976 24.1691 49.1247 25.1761 49.1247H32.5611L33.9038 40.04C32.8968 40.04 32.2254 39.0306 32.2254 38.0212V30.6188C32.2254 29.6094 32.8968 28.9365 33.9038 28.6C32.8968 26.5812 32.2254 24.5624 32.2254 22.5435C32.2254 21.5341 32.2254 18.8424 37.2606 9.42118C39.9461 4.71059 42.2958 1.00941 42.2958 1.00941C42.6315 0.336471 43.3029 0 43.9742 0C44.6456 0 45.317 0.336471 45.6526 1.00941C45.6526 1.00941 48.0024 4.71059 50.6878 9.42118C55.723 18.8424 55.723 21.5341 55.723 22.5435C55.723 24.8988 55.0517 26.9177 54.0446 28.6C55.0517 28.9365 55.723 29.6094 55.723 30.6188V38.3576C55.723 39.3671 55.0517 40.3765 54.0446 40.3765L55.3874 49.4612H60.7583V19.5153C60.7583 18.5059 61.7653 17.4965 62.7723 17.4965C63.7794 17.4965 64.7864 18.5059 64.7864 19.5153V48.4518H82.2418V44.4141H75.1925C74.1855 44.4141 73.1784 43.4047 73.1784 42.3953C73.1784 41.3859 74.1855 40.3765 75.1925 40.3765H82.2418V35.3294H77.878C76.8709 35.3294 75.8639 34.32 75.8639 33.3106C75.8639 32.3012 76.8709 31.2918 77.878 31.2918H82.2418V26.2447H75.1925C74.1855 26.2447 73.1784 25.2353 73.1784 24.2259C73.1784 23.2165 74.1855 22.2071 75.1925 22.2071H82.2418V17.16H77.878C76.8709 17.16 75.8639 16.1506 75.8639 15.1412C75.8639 14.1318 76.8709 13.1224 77.878 13.1224H82.2418V4.03765H64.7864V11.1035C64.7864 12.1129 63.7794 13.1224 62.7723 13.1224C61.7653 13.1224 60.7583 12.1129 60.7583 11.1035V2.01882C60.7583 1.00941 61.7653 0 62.7723 0H84.2559C85.2629 0 86.27 1.00941 86.27 2.01882V49.1247H90.2981V43.0682C90.2981 42.0588 91.3052 41.0494 92.3122 41.0494C93.3192 41.0494 94.3263 42.0588 94.3263 43.0682V49.1247H111.782V25.9082H93.9906V34.9929C93.9906 36.0024 92.9836 37.0118 91.9765 37.0118C90.9695 37.0118 89.9624 36.0024 89.9624 34.9929V23.8894C89.9624 23.7212 90.0464 23.5529 90.1303 23.3847C90.2142 23.2165 90.2981 23.0482 90.2981 22.88L101.04 1.34588C101.376 0.672943 102.383 0.336472 103.054 0.336472C104.061 0.336472 104.732 0.672943 105.068 1.34588L115.81 22.88C116.146 23.2165 116.146 23.5529 116.146 23.8894V49.4612ZM104.732 10.4306L103.054 7.06588L101.376 10.4306H104.732ZM107.082 14.4682H99.3615L95.669 21.8706H110.775L107.082 14.4682ZM37.932 40.04L36.5893 49.1247H50.6878L49.3451 40.04H37.932ZM36.2536 36.0023H51.3592V32.3012H36.2536V36.0023ZM38.939 28.2635H48.3381C50.0165 26.9177 51.3592 24.5623 51.3592 22.2071C51.3592 21.5341 50.6878 18.8424 46.6597 11.1035C46.324 10.5427 45.9883 9.94457 45.6526 9.3464C44.9813 8.15006 44.3099 6.95372 43.6386 6.05647C38.2677 15.1412 36.2536 20.8612 36.2536 22.5435C36.2536 24.5624 37.2606 26.9177 38.939 28.2635Z" fill="#1D1F24"/>
<path fill-rule="evenodd" clip-rule="evenodd" d="M141.657 11.44L136.958 9.4212C135.615 8.74825 134.272 7.73884 133.937 6.39296L131.923 1.68237C131.587 1.00943 130.916 0.336491 129.908 0.336491C129.237 0.336491 128.23 0.67296 127.894 1.68237L125.88 6.39296C125.209 7.73884 124.202 8.74825 122.859 9.4212L118.16 11.44C117.488 11.7765 116.817 12.4494 116.817 13.4588C116.817 14.1318 117.153 15.1412 118.16 15.4777L122.859 17.4965C124.202 17.833 125.209 19.1788 125.88 20.5247L127.894 25.2353C128.23 25.9083 128.901 26.5812 129.908 26.5812C130.58 26.5812 131.587 26.2447 131.923 25.2353L133.937 20.5247C134.608 19.1788 135.615 17.833 136.958 17.4965L141.657 15.4777C142.329 15.1412 143 14.4683 143 13.4588C143 12.4494 142.329 11.7765 141.657 11.44ZM129.908 18.8424C128.901 16.4871 126.887 14.4683 124.538 13.4588C126.887 12.4494 128.901 10.4306 129.908 8.07532C131.251 10.4306 132.93 12.113 135.279 13.4588C132.93 14.4683 130.916 16.4871 129.908 18.8424Z" fill="#1D1F24"/>
<path fill-rule="evenodd" clip-rule="evenodd" d="M16.4483 35.3294C16.1127 36.3388 15.1056 36.6753 14.4343 36.6753C13.4272 36.6753 12.7559 36.3388 12.4202 35.6659L10.0704 30.6188C9.39905 28.9365 8.05633 27.5906 6.37793 26.9177L1.34272 24.5624C0.335682 24.2259 0 23.2165 0 22.5435C0 21.5341 0.671363 20.8612 1.34272 20.5247L6.37793 18.1694C8.05633 17.4965 9.39905 16.1506 10.0704 14.4682L12.4202 9.75765C12.7559 8.74824 13.7629 8.41176 14.4343 8.41176C15.1056 8.41176 15.777 8.74824 16.1127 9.42118L18.4624 14.4682C19.1338 16.1506 20.4765 17.4965 22.1549 18.1694L27.5258 20.1882C28.5328 20.5247 28.8685 21.5341 28.8685 22.2071C28.8685 23.2165 28.1971 23.8894 27.5258 24.2259L22.4906 26.5812C20.8122 27.2541 19.4695 28.6 18.7981 30.2824L16.4483 35.3294ZM7.38497 22.5435L8.05633 22.88C10.7418 23.8894 12.7559 26.2447 14.0986 28.9365L14.4343 29.6094L14.7699 28.6C15.777 26.2447 17.7911 23.8894 20.4765 22.88L21.1479 22.2071L20.4765 21.8706C18.1267 20.8612 15.777 18.8424 14.7699 16.1506L14.4343 15.4776L13.7629 16.4871C12.7559 18.8424 10.7418 21.1976 8.05633 22.2071L7.38497 22.5435Z" fill="#1D1F24"/>
<path fill-rule="evenodd" clip-rule="evenodd" d="M77.5422 67.9671C78.2135 69.6494 79.5563 70.9953 81.2346 71.6682L86.2699 74.0235C87.2769 74.36 87.6126 75.3694 87.6126 76.0424C87.6126 77.0518 86.9412 77.7247 86.2699 78.0612L81.2346 80.4165C79.5563 81.0894 78.2135 82.4353 77.5422 84.1177L75.1924 89.1647C74.8567 90.1741 73.8497 90.5106 73.1783 90.5106C72.1713 90.5106 71.4999 89.8377 71.1642 89.1647L68.8145 84.1177C68.1431 82.4353 66.8004 81.0894 65.122 80.4165L60.0868 78.0612C59.0797 77.7247 58.7441 76.7153 58.7441 76.0424C58.7441 75.033 59.4154 74.36 60.0868 74.0235L65.122 71.6682C66.8004 70.9953 68.1431 69.6494 68.8145 67.9671L71.1642 62.92C71.4999 61.9106 72.507 61.5741 73.1783 61.5741C73.8497 61.5741 74.8567 61.9106 75.1924 62.92L77.5422 67.9671ZM73.514 81.7624C74.521 79.4071 76.5351 77.0518 79.2206 76.0424L79.8919 75.7059L79.2206 75.3694C76.8708 74.36 74.521 72.3412 73.514 69.6494L73.1783 68.9765L72.8426 69.6494C71.8356 72.0047 69.8215 74.36 67.1361 75.3694L66.4647 75.7059L67.1361 76.0424C69.4858 77.0518 71.8356 79.0706 72.8426 81.7624L73.1783 82.4353L73.514 81.7624Z" fill="#1D1F24"/>
</svg>
