<svg width="165" height="166" viewBox="0 0 165 166" fill="none" xmlns="http://www.w3.org/2000/svg">
<path fill-rule="evenodd" clip-rule="evenodd" d="M63.2415 117.338C65.2647 118.462 67.4044 119.394 69.6243 120.152L69.4958 120.253C78.4156 131.77 90.852 140.762 103.613 144.917L105.259 139.867C100.354 138.273 88.7485 133.536 78.0102 122.059C79.4874 122.228 80.9808 122.328 82.4982 122.328C83.1712 122.328 83.8319 122.284 84.4919 122.239C84.6743 122.227 84.8567 122.215 85.0392 122.204L84.9469 122.364C97.7726 129.614 109.852 132.195 120.546 132.195C146.812 132.195 164.751 116.628 165 116.403L161.476 112.433C160.215 113.549 131.525 138.249 93.4894 120.75C95.7615 120.096 97.9412 119.237 100.025 118.209L100.001 118.39C103.156 118.787 106.347 118.988 109.527 118.988C120.911 118.988 132.207 116.459 141.561 111.706L139.156 106.969C134.552 109.31 122.983 114.167 107.258 113.641C109.105 112.168 110.807 110.534 112.361 108.764L112.413 108.956C161.472 95.3277 164.78 48.6011 164.804 48.1354L159.505 47.8223C159.481 48.2358 156.695 87.0943 117.338 101.759C118.458 99.7354 119.39 97.5918 120.148 95.3718L120.253 95.5003C131.77 86.5805 140.758 74.1442 144.917 61.3826L139.867 59.7368C138.273 64.6423 133.532 76.2477 122.059 86.9859C122.232 85.5047 122.332 84.0113 122.332 82.4899C122.332 81.8592 122.291 81.2393 122.25 80.6224L122.25 80.6217L122.25 80.6211C122.235 80.3981 122.221 80.1755 122.208 79.9529L122.368 80.0452C147.422 35.7272 116.716 0.349001 116.403 -0.000244141L112.433 3.52432C113.549 4.78883 138.253 33.4711 120.751 71.5108C120.096 69.2387 119.237 67.0589 118.21 64.9755L118.39 64.9995C120.225 50.556 117.788 35.402 111.706 23.4393L106.973 25.8439C109.314 30.4483 114.175 42.0216 113.641 57.7457C112.172 55.8991 110.534 54.197 108.76 52.6395L108.953 52.5873C95.3279 3.52031 48.6053 0.212515 48.1356 0.188429L47.8265 5.48732C48.236 5.51141 87.0986 8.29734 101.763 47.6537C99.7397 46.5297 97.6 45.6024 95.3801 44.8397L95.5086 44.7393C86.5888 33.2182 74.1524 24.2302 61.3909 20.0753L59.745 25.1254C64.6505 26.719 76.2559 31.4599 86.9942 42.9329C85.5169 42.7683 84.0196 42.6639 82.5022 42.6639C81.8011 42.6639 81.1161 42.7121 80.4297 42.7603H80.4296H80.4295H80.4295H80.4294H80.4293H80.4292H80.4292H80.4291H80.429H80.429H80.4289H80.4288H80.4288H80.4287H80.4286C80.2743 42.7712 80.1198 42.782 79.9651 42.7924L80.0575 42.6318C35.7354 17.5825 0.349245 48.2839 0 48.593L3.52457 52.5632C4.78506 51.4512 33.4794 26.7471 71.511 44.2455C69.2429 44.8999 67.0631 45.7589 64.9757 46.7866L64.9998 46.606C50.5523 44.7674 35.4022 47.2041 23.4396 53.2898L25.8442 58.0267C30.4486 55.6903 42.0178 50.825 57.7459 51.3589C55.8993 52.8281 54.1973 54.466 52.6397 56.2363L52.5835 56.0476C3.52056 69.6682 0.212759 116.395 0.184658 116.864L5.48355 117.178C5.50764 116.764 8.29357 77.9056 47.6539 63.2413C46.5299 65.2645 45.6026 67.4041 44.8399 69.624L44.7395 69.4956C33.2184 78.4154 24.2304 90.8517 20.0756 103.613L25.1256 105.255C26.7233 100.35 31.4602 88.7442 42.9331 78.0099C42.7685 79.4872 42.6641 80.9846 42.6641 82.502C42.6641 83.2051 42.7125 83.8948 42.7609 84.5843L42.761 84.5852C42.7717 84.7378 42.7824 84.8903 42.7926 85.043L42.632 84.9507C17.5787 129.277 48.2802 164.655 48.5933 165.004L52.5634 161.48C51.4475 160.215 26.7434 131.533 44.2458 93.4931C44.9001 95.7653 45.7592 97.945 46.7868 100.028L46.6062 100.004C44.7716 114.452 47.2043 129.602 53.29 141.565L58.0269 139.16C55.6866 134.56 50.8252 122.982 51.3591 107.262C52.8284 109.109 54.4662 110.811 56.2405 112.368L56.0479 112.421C69.6765 161.48 116.399 164.787 116.869 164.815L117.178 159.517C116.768 159.501 77.9058 156.715 63.2415 117.354V117.338ZM47.9791 82.4979C47.9791 63.4621 63.4663 47.9788 82.4982 47.9788C101.53 47.9788 117.017 63.4661 117.017 82.4979C117.017 101.53 101.53 117.017 82.4982 117.017C63.4663 117.017 47.9791 101.53 47.9791 82.4979ZM111.706 82.4979C111.706 66.3965 98.6035 53.2898 82.4981 53.2898C66.3926 53.2898 53.2899 66.3965 53.2899 82.4979C53.2899 98.5993 66.3966 111.706 82.4981 111.706C98.5995 111.706 111.706 98.6034 111.706 82.4979ZM58.5968 82.4979C58.5968 69.3189 69.315 58.6007 82.494 58.6007C95.673 58.6007 106.391 69.3229 106.391 82.4979C106.391 95.6729 95.673 106.395 82.494 106.395C69.315 106.395 58.5968 95.6769 58.5968 82.4979ZM101.085 82.4978C101.085 72.2493 92.7428 63.9115 82.4983 63.9115C72.2538 63.9115 63.912 72.2533 63.912 82.4978C63.912 92.7423 72.2538 101.084 82.4983 101.084C92.7428 101.084 101.085 92.7423 101.085 82.4978ZM69.2189 82.4978C69.2189 75.1797 75.1762 69.2225 82.4943 69.2225C89.8124 69.2225 95.7696 75.1797 95.7696 82.4978C95.7696 89.8159 89.8124 95.7772 82.4943 95.7772C75.1762 95.7772 69.2189 89.8199 69.2189 82.4978ZM82.4941 74.5336C86.8898 74.5336 90.4625 78.1063 90.4625 82.498C90.4625 86.8896 86.8818 90.4624 82.4941 90.4624C78.1065 90.4624 74.5297 86.8856 74.5297 82.498C74.5297 78.1103 78.0984 74.5336 82.4941 74.5336ZM79.8407 82.498C79.8407 83.9632 81.0289 85.1514 82.4941 85.1514C83.9594 85.1514 85.1476 83.9592 85.1476 82.498C85.1476 81.0367 83.9553 79.8445 82.4941 79.8445C81.0329 79.8445 79.8407 81.0327 79.8407 82.498ZM40.0106 16.1131H45.3215V21.424H40.0106V16.1131ZM34.6996 5.49133H29.3887V10.8023H34.6996V5.49133ZM8.14504 24.0776H13.456V29.3885H8.14504V24.0776ZM13.456 63.9115H8.14504V69.2225H13.456V63.9115ZM18.7669 119.674H24.0779V124.985H18.7669V119.674ZM13.456 130.296H8.14504V135.607H13.456V130.296ZM53.2899 151.54H58.6008V156.851H53.2899V151.54ZM77.1872 159.504H71.8763V164.815H77.1872V159.504ZM117.017 143.572H122.328V148.883H117.017V143.572ZM138.261 138.261H132.95V143.572H138.261V138.261ZM154.194 95.7734H159.505V101.084H154.194V95.7734ZM148.883 34.6996H143.572V40.0105H148.883V34.6996ZM148.883 18.7667H154.194V24.0776H148.883V18.7667ZM103.742 8.14491H98.4309V13.4559H103.742V8.14491ZM87.809 0.180449H93.12V5.49139H87.809V0.180449Z" fill="#1D1F24"/>
</svg>
