<svg width="24" height="23" viewBox="0 0 24 23" fill="none" xmlns="http://www.w3.org/2000/svg">
<path fill-rule="evenodd" clip-rule="evenodd" d="M16.8273 0C20.3606 0 23.0249 3.20467 23.0249 7.45436V15.5551C23.0249 17.7301 22.3331 19.6951 21.0758 21.0892C19.9479 22.3383 18.4847 23 16.8443 23H6.38981C4.75262 23 3.2905 22.3395 2.16154 21.0892C0.904205 19.6951 0.212402 17.7301 0.212402 15.5551V7.45436C0.212402 3.20467 2.87669 0 6.40998 0H16.8273ZM16.8273 1.76923H6.40998C3.74144 1.76923 1.80397 4.16005 1.80397 7.45436V15.5551C1.80397 17.2571 2.33025 18.7774 3.28519 19.8354C4.10856 20.7495 5.18341 21.2308 6.393 21.2308H16.8273C16.8295 21.2284 16.8379 21.2308 16.8443 21.2308C18.055 21.2308 19.1287 20.7495 19.9521 19.8354C20.9081 18.7774 21.4333 17.2571 21.4333 15.5551V7.45436C21.4333 4.16005 19.4959 1.76923 16.8273 1.76923ZM18.4995 7.22884C18.7765 7.60746 18.7245 8.16417 18.3839 8.4732L13.6686 12.7335C13.0723 13.2596 12.3593 13.5226 11.6473 13.5226C10.9375 13.5226 10.2297 13.2619 9.63768 12.7406L4.87888 8.47556C4.53617 8.16889 4.48311 7.61099 4.75793 7.2312C5.03486 6.85258 5.53567 6.79243 5.87733 7.09792L10.6319 11.3582C11.2292 11.8843 12.0707 11.8843 12.6723 11.3535L17.3791 7.10028C17.7207 6.79007 18.2215 6.84905 18.4995 7.22884Z" fill="black"/>
</svg>
