<svg width="25" height="17" viewBox="0 0 25 17" fill="none" xmlns="http://www.w3.org/2000/svg">
<path d="M24.4793 2.65475C24.1912 1.60924 23.3454 0.787629 22.2691 0.507761C20.3182 0 12.5 0 12.5 0C12.5 0 4.68184 0 2.73296 0.507761C1.65665 0.787629 0.810833 1.60924 0.52272 2.65475C0 4.54786 0 8.5 0 8.5C0 8.5 0 12.4521 0.52272 14.3453C0.810833 15.3908 1.65665 16.2124 2.73296 16.4922C4.68184 17 12.5 17 12.5 17C12.5 17 20.3182 17 22.267 16.4922C23.3433 16.2124 24.1892 15.3908 24.4773 14.3453C25 12.4521 25 8.5 25 8.5C25 8.5 25 4.54786 24.4773 2.65475H24.4793ZM9.99959 12.1423V4.85771L16.4945 8.5L9.99959 12.1423Z" fill="#1D1F24"/>
</svg>
