<svg width="552" height="553" viewBox="0 0 552 553" fill="none" xmlns="http://www.w3.org/2000/svg">
<path fill-rule="evenodd" clip-rule="evenodd" d="M211.571 392.55C218.34 396.31 225.498 399.426 232.924 401.964L232.495 402.3C262.335 440.829 303.94 470.912 346.633 484.811L352.14 467.917C335.729 462.585 296.903 446.738 260.979 408.343C265.921 408.907 270.917 409.243 275.993 409.243C278.245 409.243 280.456 409.094 282.664 408.946L282.672 408.946L282.68 408.945L282.687 408.944L282.695 408.944C283.021 408.922 283.347 408.9 283.673 408.879L284.042 408.855C284.193 408.845 284.343 408.836 284.494 408.826L284.185 409.364C327.093 433.618 367.503 442.253 403.28 442.253C491.15 442.253 551.167 390.173 552 389.42L540.209 376.138C535.992 379.872 440.01 462.505 312.764 403.965C320.365 401.776 327.657 398.902 334.627 395.464L334.547 396.068C345.102 397.398 355.779 398.069 366.415 398.069C404.502 398.069 442.293 389.608 473.584 373.708L465.54 357.861C450.136 365.69 411.432 381.94 358.828 380.181C365.005 375.252 370.699 369.786 375.897 363.864L376.071 364.508C540.195 318.915 551.261 162.593 551.342 161.035L533.615 159.988C533.534 161.371 524.214 291.37 392.549 340.429C396.296 333.66 399.412 326.489 401.95 319.062L402.299 319.492C440.829 289.651 470.898 248.046 484.811 205.353L467.917 199.847C462.585 216.258 446.725 255.083 408.343 291.008C408.92 286.052 409.256 281.056 409.256 275.967C409.256 273.857 409.118 271.783 408.982 269.719C408.932 268.971 408.883 268.225 408.84 267.479L409.377 267.788C493.191 119.524 390.468 1.16838 389.42 0L376.138 11.7913C379.872 16.0216 462.518 111.977 403.965 239.236C401.776 231.635 398.902 224.343 395.464 217.373L396.068 217.453C402.205 169.133 394.054 118.436 373.708 78.4159L357.874 86.4603C365.704 101.864 381.967 140.582 380.181 193.186C375.266 187.008 369.786 181.314 363.85 176.103L364.495 175.929C318.915 11.7778 162.607 0.711773 161.035 0.631195L160.001 18.3584C161.371 18.439 291.384 27.7591 340.442 159.424C333.674 155.663 326.516 152.561 319.089 150.01L319.519 149.674C289.678 111.131 248.073 81.0616 205.38 67.1618L199.874 84.0564C216.285 89.388 255.11 105.248 291.035 143.63C286.092 143.08 281.083 142.731 276.007 142.731C273.66 142.731 271.368 142.892 269.07 143.053L269.07 143.053L269.059 143.054C268.546 143.09 268.033 143.126 267.519 143.16L267.828 142.623C119.551 58.822 1.16838 161.532 0 162.566L11.7913 175.848C16.0082 172.128 112.004 89.482 239.236 148.022C231.649 150.211 224.356 153.085 217.373 156.523L217.453 155.919C169.12 149.768 118.436 157.92 78.4159 178.279L86.4603 194.126C101.864 186.31 140.568 170.033 193.186 171.819C187.008 176.735 181.314 182.214 176.103 188.136L175.915 187.505C11.7778 233.072 0.711773 389.394 0.617765 390.965L18.3449 392.012C18.4255 390.629 27.7457 260.63 159.424 211.571C155.663 218.34 152.561 225.498 150.01 232.924L149.674 232.495C111.131 262.335 81.0615 303.941 67.1618 346.633L84.0564 352.126C89.4014 335.715 105.248 296.89 143.63 260.979C143.08 265.921 142.731 270.93 142.731 276.007C142.731 278.359 142.893 280.666 143.054 282.973C143.09 283.484 143.126 283.996 143.16 284.508L142.623 284.199C58.8086 432.489 161.519 550.845 162.566 552.014L175.848 540.222C172.115 535.992 89.4685 440.037 148.022 312.777C150.211 320.378 153.085 327.671 156.523 334.641L155.919 334.56C149.781 382.894 157.92 433.577 178.279 473.598L194.126 465.553C186.297 450.163 170.033 411.432 171.819 358.841C176.735 365.019 182.214 370.713 188.15 375.924L187.505 376.098C233.099 540.222 389.407 551.288 390.978 551.382L392.012 533.655C390.642 533.602 260.63 524.281 211.571 392.603V392.55ZM160.512 275.993C160.512 212.31 212.323 160.512 275.993 160.512C339.663 160.512 391.475 212.323 391.475 275.993C391.475 339.663 339.663 391.475 275.993 391.475C212.323 391.475 160.512 339.663 160.512 275.993ZM373.707 275.993C373.707 222.127 329.873 178.279 275.993 178.279C222.113 178.279 178.279 222.127 178.279 275.993C178.279 329.86 222.127 373.708 275.993 373.708C329.86 373.708 373.707 329.873 373.707 275.993ZM196.033 275.993C196.033 231.904 231.89 196.047 275.98 196.047C320.069 196.047 355.927 231.917 355.927 275.993C355.927 320.07 320.069 355.94 275.98 355.94C231.89 355.94 196.033 320.083 196.033 275.993ZM338.173 275.993C338.173 241.707 310.266 213.813 275.994 213.813C241.721 213.813 213.814 241.72 213.814 275.993C213.814 310.265 241.721 338.172 275.994 338.172C310.266 338.172 338.173 310.265 338.173 275.993ZM231.568 275.993C231.568 251.511 251.498 231.581 275.98 231.581C300.463 231.581 320.392 251.511 320.392 275.993C320.392 300.475 300.463 320.418 275.98 320.418C251.498 320.418 231.568 300.489 231.568 275.993ZM275.98 249.349C290.685 249.349 302.638 261.301 302.638 275.993C302.638 290.686 290.659 302.638 275.98 302.638C261.301 302.638 249.335 290.672 249.335 275.993C249.335 261.315 261.274 249.349 275.98 249.349ZM267.103 275.993C267.103 280.895 271.078 284.871 275.98 284.871C280.882 284.871 284.857 280.882 284.857 275.993C284.857 271.105 280.868 267.116 275.98 267.116C271.092 267.116 267.103 271.092 267.103 275.993ZM133.854 53.9065H151.621V71.674H133.854V53.9065ZM116.086 18.3717H98.3184V36.1392H116.086V18.3717ZM27.2485 80.5509H45.016V98.3184H27.2485V80.5509ZM45.016 213.813H27.2485V231.581H45.016V213.813ZM62.7842 400.365H80.5516V418.133H62.7842V400.365ZM45.016 435.901H27.2485V453.669H45.016V435.901ZM178.279 506.971H196.046V524.738H178.279V506.971ZM258.225 533.615H240.458V551.382H258.225V533.615ZM391.475 480.312H409.242V498.079H391.475V480.312ZM462.545 462.545H444.777V480.312H462.545V462.545ZM515.847 320.405H533.614V338.173H515.847V320.405ZM498.079 116.087H480.312V133.854H498.079V116.087ZM498.08 62.7839H515.847V80.5514H498.08V62.7839ZM347.063 27.2491H329.295V45.0166H347.063V27.2491ZM293.761 0.60437H311.528V18.3718H293.761V0.60437Z" fill="white"/>
</svg>
