<svg width="275" height="42" viewBox="0 0 275 42" fill="none" xmlns="http://www.w3.org/2000/svg">
<path d="M138.579 0.0355702C138.462 0.000474013 138.334 -0.0112247 138.205 0.0121728C138.054 0.0359571 137.882 0.0543686 137.692 0.0746895C137.602 0.0843542 137.507 0.0944508 137.409 0.105763C131.934 0.480122 114.772 0.59711 110.748 0.199353C109.66 0.0706664 109.087 1.5798 109.332 2.80817C109.841 5.31887 109.984 9.51311 110.097 12.8304L110.116 13.3955C110.058 15.7938 111.543 16.5542 112.573 16.4723C113.345 16.4021 114.094 16.1096 114.094 15.0568C114.082 7.63975 117.042 4.83205 119.803 4.78526C119.803 8.06675 119.809 11.3453 119.815 14.6239L119.815 14.6367C119.82 17.911 119.826 21.1853 119.826 24.4625C119.826 29.9024 119.124 32.6517 117.159 33.4706C117.042 33.5174 116.925 33.5525 116.796 33.5876L116.789 33.5907L116.786 33.5923L116.779 33.5948C116.773 33.5972 116.766 33.5992 116.761 33.5992C116.738 33.5992 116.714 33.6109 116.691 33.6226C116.363 33.7045 116.036 34.2076 115.977 34.8276C115.919 35.4827 116.001 36.2783 116.188 36.8515C116.34 37.8342 117.1 38.6765 118.106 38.5829C120.411 38.3489 130.145 38.4074 132.426 38.9105C133.572 39.1561 133.748 38.1267 133.853 37.4247C133.903 37.0644 133.867 36.4986 133.834 35.969C133.829 35.8796 133.823 35.7912 133.818 35.705C133.713 34.2895 132.543 33.611 132.285 33.5525C131.841 33.4472 131.455 33.26 131.127 32.9909C130.402 31.5169 130.098 29.142 130.098 25.6558V4.69167H131.151C131.888 4.69167 132.601 4.79696 133.233 5.07773C134.672 6.66876 135.736 9.27757 135.76 13.185C135.584 16.0628 137.152 16.25 137.889 16.2734C138.79 16.3085 139.784 15.9342 139.796 14.7409C139.796 11.243 140.135 6.87933 140.521 4.05994C140.837 1.73189 140.615 0.0355702 138.579 0.0589677V0.0355702Z" fill="#463A6D"/>
<path d="M218.973 4.41082C223.079 5.19464 228.507 5.77958 232.836 5.91996L232.859 5.94336C234.369 5.97845 234.684 7.81516 234.755 8.58727C234.837 9.37109 234.638 10.0379 233.982 10.1432C231.818 10.4942 231.023 12.8456 230.999 17.8527C230.988 19.5183 230.979 21.1868 230.97 22.8568C230.961 24.518 230.952 26.1807 230.941 27.8434C230.939 28.1686 230.938 28.4796 230.936 28.7771C230.921 31.091 230.912 32.5844 231.233 33.5173C231.666 34.1724 232.228 34.617 232.965 34.8275C234.333 35.0147 234.322 36.7929 234.24 37.5767C234.158 38.3372 233.912 38.9104 233.257 38.9104C229.057 38.0915 223.922 38.1149 219.675 38.8168C218.996 38.9338 218.025 38.4425 217.862 36.8046C217.856 36.7812 217.849 36.7586 217.843 36.7359C217.823 36.6679 217.803 36.5999 217.803 36.5122L217.78 36.2197C217.698 35.4008 217.85 34.6638 218.505 34.5C220.681 33.9384 221.43 31.5402 221.453 26.4278C221.465 24.7187 221.474 23.0125 221.482 21.3063C221.491 19.6023 221.5 17.8983 221.512 16.1915C221.523 13.1966 221.313 11.0791 220.669 9.68695V9.65186C220.658 9.60506 220.634 9.56997 220.611 9.53487C220.307 9.2658 219.967 9.03182 219.57 8.89144C218.915 8.65746 217.674 7.86195 217.908 5.95506C217.99 5.15954 218.33 4.28214 218.973 4.41082Z" fill="#463A6D"/>
<path fill-rule="evenodd" clip-rule="evenodd" d="M272.775 36.0442C274.285 36.0793 274.378 37.3428 274.413 37.916L274.425 37.9394V37.9862C274.472 38.653 273.957 39.2146 273.29 39.1561C267.85 38.6764 263.206 38.7232 258.409 39.0157C257.497 39.0742 256.233 38.5009 256.573 36.7578V36.6876C256.655 36.1378 256.9 35.5763 257.415 35.5178C258.971 35.3423 259.31 34.0554 258.632 31.3998L258.628 31.3997C255.249 31.2476 251.869 31.0956 248.477 30.9553C247.869 32.8037 247.565 34.0203 247.81 34.7106C248.161 35.0849 248.641 35.3306 249.249 35.4125C250.571 35.4008 250.794 36.5824 250.852 37.0971C250.864 37.2609 250.875 37.7756 250.852 37.9394C250.782 38.4659 250.63 38.9221 249.846 38.8636C246.442 38.5828 243.283 38.5243 240.323 38.7934C239.727 38.8402 238.65 38.7817 238.486 36.7461C238.486 36.7227 238.481 36.6993 238.475 36.6759L238.471 36.6595L238.469 36.6527C238.466 36.6371 238.463 36.6214 238.463 36.6058C238.393 35.8453 238.627 35.0264 239.259 34.9328C241.715 34.5702 243.388 32.1953 245.307 27.7732C248.313 21.1985 251.285 14.811 254.268 8.72766C254.362 8.52878 254.537 8.45859 254.713 8.43519C254.724 8.43519 254.733 8.42934 254.742 8.42349C254.751 8.41764 254.759 8.41179 254.771 8.41179C255.286 8.3299 256.362 8.69256 256.877 9.90923C259.111 15.3491 267.043 30.0428 267.043 29.9024C267.356 30.4728 267.635 30.9957 267.89 31.4742L267.9 31.4914L267.901 31.4937L267.902 31.4956L267.905 31.501L267.912 31.5147L267.914 31.5187C268.735 33.0574 269.309 34.1324 269.956 34.8509C270.787 35.5178 271.699 35.9155 272.775 36.0442ZM249.921 27.5046C252.267 27.5747 254.601 27.6447 256.935 27.7147C255.742 25.2463 254.549 22.731 253.356 20.1807C252.211 22.587 251.066 25.0283 249.921 27.5046Z" fill="#463A6D"/>
<path d="M93.0361 0.971522C95.9257 1.24059 99.3183 1.05341 102.547 0.503572L102.594 0.550367C104.945 0.164309 104.793 3.20598 104.653 4.35246C104.571 5.04268 104.279 5.89669 103.694 6.02538C100.956 6.63371 98.3005 9.57009 95.294 15.4078C95.1766 15.6379 95.0372 15.902 94.8837 16.193C93.8741 18.1063 92.2523 21.1797 92.2523 23.3629C92.264 25.2932 92.264 27.3288 92.264 27.3288C92.2757 30.6044 92.3459 32.2539 92.8489 33.1898C93.1531 33.6227 93.5274 33.9503 93.9603 34.1608C94.1592 34.2544 94.3698 34.3246 94.6154 34.3948C96.2766 34.8745 95.9608 38.2203 95.9608 38.2203C95.8906 39.2264 95.4928 39.9517 94.7441 39.7996C90.5443 38.9573 85.7946 38.9924 81.8755 39.8113C81.1853 39.9634 80.2962 39.0041 79.9452 36.9802C79.8984 36.8165 79.875 36.6527 79.8516 36.4772V36.3836C79.7931 35.6466 79.8984 34.9915 80.3079 34.6639C80.2845 34.6171 80.3547 34.5469 80.6003 34.4767C81.6766 34.1374 82.4019 33.3068 82.8582 31.8679C83.1975 30.7916 83.3846 29.3761 83.4548 27.5862C83.4899 26.9895 83.4899 26.3461 83.4899 25.6676C83.4899 25.6676 83.4548 24.3573 83.4548 22.8014C83.4431 20.8477 82.0627 18.4377 80.8343 16.5191C80.7524 16.3905 80.6705 16.2618 80.6003 16.1448C80.4348 15.8852 80.2742 15.6378 80.1226 15.4044C79.8029 14.912 79.5236 14.4817 79.3252 14.1326C79.2608 14.0199 79.1973 13.9081 79.1344 13.7974C78.9689 13.506 78.8077 13.2224 78.6466 12.951C78.5948 12.8696 78.5477 12.7881 78.5023 12.7097C78.476 12.6642 78.4501 12.6196 78.4244 12.5767C78.3951 12.524 78.3659 12.4743 78.3366 12.4246C78.3074 12.3749 78.2781 12.3251 78.2489 12.2725C76.2367 9.28932 74.5989 7.99077 72.5399 7.6515C71.5806 7.49942 70.6213 6.87938 70.4692 4.35246V4.24717C70.3522 3.15919 70.6564 2.1414 71.5104 2.17649C75.9676 2.39877 82.168 2.1297 86.7539 1.27569C86.775 1.27147 86.7945 1.26573 86.8137 1.26012C86.8476 1.25016 86.8802 1.24059 86.9176 1.24059C88.7544 0.88963 88.7193 3.74412 88.6842 4.82041V5.00759C88.6608 5.8148 88.5204 6.48163 87.9237 6.6922C86.6252 7.14846 86.087 8.09605 86.8358 10.2369C87.3037 11.1494 87.9003 12.1906 88.6842 13.419C89.0702 14.0273 90.2752 15.8172 90.2752 15.8172C90.4794 15.4613 90.6865 15.1055 90.8936 14.7496L90.8952 14.7468L90.8967 14.7442C91.1039 14.3883 91.311 14.0323 91.5153 13.6764C93.3169 10.4943 94.0656 8.23644 94.0656 6.7507C93.8784 6.61031 93.6678 6.50502 93.4222 6.42313C92.498 6.13067 91.913 5.28836 91.8662 3.0071V2.86672C91.8311 1.79043 92.2289 0.889631 93.0361 0.971522Z" fill="#463A6D"/>
<path d="M73.4407 36.7696C73.3822 36.7345 73.3237 36.6994 73.2535 36.676C70.0133 35.7211 66.825 31.905 63.536 27.9683C60.7808 24.6704 57.9548 21.2879 54.9684 19.4321C53.9272 18.7769 52.8158 18.3441 51.6343 18.1686C51.9735 17.8475 52.3131 17.5264 52.6531 17.205L52.6541 17.204C54.0723 15.8632 55.4951 14.5179 56.9104 13.1498C60.1392 10.2603 63.3447 8.34167 65.7195 7.75673C66.3513 7.60465 66.5385 6.93782 66.5852 6.11891C66.6437 5.04262 66.4683 2.4806 64.7719 2.90176C64.3157 3.00704 63.8397 3.09259 63.3637 3.17814C63.205 3.20665 63.0464 3.23517 62.8884 3.26442C59.6596 3.80256 56.033 3.98974 53.1902 3.89615C52.3128 3.87275 52.032 4.91394 52.1724 5.97852C52.1724 5.97852 52.2309 8.51715 53.6464 8.70433C54.1378 8.77452 54.5238 8.89151 54.8397 9.06699C54.8397 9.09039 54.8397 9.12548 54.8163 9.14888C54.8163 9.17228 54.8046 9.19568 54.7929 9.21907C54.6993 9.46475 54.5355 9.73382 54.3133 10.0146C54.2899 10.0497 54.2548 10.0848 54.2197 10.1198L54.2187 10.121C54.1254 10.2259 54.0321 10.3309 53.9272 10.4474L53.7985 10.5761L53.7633 10.6086C53.6214 10.7397 53.469 10.8804 53.3072 11.0207C50.9206 13.2551 48.5341 15.4428 46.1475 17.6071V17.5369C46.1241 12.5181 46.8846 10.0029 49.0254 9.20737C49.6923 8.9617 49.8443 8.20128 49.7625 7.37067V7.25368C49.7511 7.14177 49.7429 7.00892 49.7338 6.86285C49.668 5.80266 49.559 4.04608 47.9141 4.53958C43.7961 5.67436 39.7366 6.09551 35.7474 5.93173C34.9987 5.89663 34.6009 6.57516 34.5307 7.46426V7.56955C34.3786 9.80401 35.2209 10.3889 35.8878 10.5059C36.6482 10.6346 37.2448 11.0207 37.6894 11.6758C37.7082 11.7416 37.7288 11.8055 37.7499 11.8705C37.7812 11.9673 37.8135 12.0669 37.8414 12.1789L37.8507 12.2304C37.8712 12.3444 37.8929 12.4649 37.9233 12.5766C37.9701 12.8106 38.0169 13.0563 38.052 13.3253C38.0643 13.4053 38.0734 13.4885 38.0826 13.5732C38.091 13.6496 38.0994 13.7273 38.1105 13.805C38.1456 14.0974 38.169 14.4016 38.1924 14.7175C38.1924 14.8156 38.2021 14.9138 38.2122 15.015C38.2177 15.0706 38.2234 15.1274 38.2275 15.1854C38.2509 15.6768 38.2626 16.1798 38.2743 16.7414C38.2801 18.4143 38.2889 20.0901 38.2977 21.766C38.3065 23.4418 38.3152 25.1177 38.3211 26.7906C38.3445 31.6923 37.5841 34.1023 35.4432 34.7223C34.7764 34.9212 34.6243 35.6348 34.6945 36.4186V36.5122C34.701 36.5511 34.711 36.5827 34.7207 36.6132C34.7285 36.6378 34.7361 36.6616 34.7413 36.6877C35.0103 38.3957 35.8293 39.3901 36.5429 39.2614C40.7778 38.4659 44.8256 38.4659 48.733 39.1678C49.4817 39.3082 49.8794 38.6414 49.9496 37.7172V37.6236C49.9496 34.6404 48.5926 34.4182 48.5926 34.4182C48.0427 34.2778 47.5865 34.0087 47.2121 33.6109C46.7091 32.7686 46.2528 31.1074 46.2411 27.8552C46.2411 27.0012 46.2353 26.1442 46.2294 25.2873C46.2236 24.4304 46.2177 23.5734 46.2177 22.7194C49.4378 22.7726 51.6085 26.3571 54.0357 30.365C58.0104 36.9283 62.6726 44.6269 73.7566 39.8113C74.0022 39.706 74.2011 39.4369 74.166 39.0509C74.1629 39.0048 74.1617 38.9388 74.1602 38.858C74.15 38.3225 74.1275 37.1369 73.4875 36.7813L73.4407 36.7696Z" fill="#463A6D"/>
<path fill-rule="evenodd" clip-rule="evenodd" d="M177.706 9.99705C177.744 10.0731 177.782 10.1491 177.817 10.2252C177.858 10.3246 177.896 10.424 177.934 10.5235C177.972 10.6229 178.01 10.7224 178.051 10.8218C179.548 13.6997 180.32 17.1859 180.309 21.1401C180.262 33.2717 172.74 39.1094 163.053 39.1094C154.162 39.1094 146.441 33.8098 145.236 23.2927C145.224 23.2576 145.224 23.2342 145.224 23.1991C145.212 23.0937 145.198 22.9913 145.183 22.8889C145.169 22.7866 145.154 22.6843 145.142 22.579C145.002 21.456 144.92 20.2627 144.92 18.9992C144.932 7.69825 151.132 0.117464 162.41 0.468426C166.516 0.608811 169.944 1.74359 172.33 3.59199C172.365 3.61538 172.394 3.6417 172.424 3.66801C172.453 3.69434 172.482 3.72067 172.517 3.74407C172.985 4.05994 173.43 4.4109 173.851 4.77356C173.88 4.80281 173.915 4.82914 173.95 4.85547C173.986 4.88178 174.021 4.9081 174.05 4.93734C174.529 5.3585 174.974 5.82645 175.383 6.31779C175.442 6.38801 175.498 6.46116 175.553 6.5343C175.609 6.60739 175.664 6.68048 175.723 6.75065C176.015 7.11331 176.296 7.49937 176.553 7.89712C176.586 7.94888 176.618 7.99975 176.65 8.05021L176.651 8.05119C176.734 8.18263 176.817 8.31213 176.893 8.44696C177.15 8.86812 177.372 9.31267 177.595 9.76892C177.63 9.84497 177.668 9.92101 177.706 9.99705ZM159.894 33.4355C160.62 33.8215 161.591 33.9151 162.491 33.9151L162.48 33.9034C167.019 33.9268 169.171 29.0835 169.265 19.3151C169.274 18.8199 169.263 18.3515 169.252 17.8896C169.248 17.7406 169.245 17.5916 169.242 17.4433C169.23 16.8701 169.207 16.3202 169.171 15.7938V15.7704C169.066 14.1559 168.879 12.7053 168.622 11.4301C168.61 11.4067 168.61 11.3716 168.61 11.3483C168.528 10.9505 168.434 10.5644 168.329 10.1901C168.329 10.1726 168.323 10.1551 168.318 10.1376C168.312 10.1201 168.306 10.1023 168.306 10.0848C168.212 9.76892 168.119 9.47645 168.025 9.19568C167.99 9.0787 167.955 8.96171 167.908 8.85642C166.762 6.84424 165.182 5.80305 163.147 5.74456C158.596 5.61587 156.221 10.5059 156.209 20.6838C156.198 24.9773 156.595 28.3114 157.391 30.7331C158.058 32.0082 158.888 32.909 159.894 33.4355Z" fill="#463A6D"/>
<path d="M11.8001 15.6533C11.8001 15.9595 11.8661 16.2218 11.966 16.4721C13.1484 17.4509 15.4094 17.9401 17.9368 18.4869C22.0488 19.3766 26.8662 20.4189 28.8919 23.9711C29.9097 25.2112 30.5532 26.8139 30.5532 28.9314C30.6117 38.8753 12.3616 43.0868 4.32459 35.5177C4.32459 35.5177 2.68677 38.0564 1.93805 38.9104C1.71577 39.1677 1.31802 39.1794 1.08404 39.0508C0.908561 38.9572 -0.156024 38.1266 0.0194568 37.5416C0.0226735 37.532 0.0267745 37.5214 0.0310305 37.5105C0.0422532 37.4817 0.054553 37.4501 0.054553 37.4246C0.616092 34.5701 0.768176 29.6216 0.569297 27.0947C0.499105 26.1938 1.20103 25.6206 2.11353 25.5387C2.3943 25.5153 2.65167 25.5387 2.88565 25.6206C3.43549 25.7493 4.00873 26.5682 4.18421 27.083C4.76914 28.7676 5.48277 30.1714 6.27828 31.3413C7.55344 32.8972 8.98069 33.9384 10.443 34.535H10.4196C10.7004 34.652 10.9695 34.7456 11.2385 34.8392C11.2518 34.8436 11.2633 34.8497 11.2745 34.8555C11.2929 34.8652 11.3103 34.8743 11.3321 34.8743C11.5895 34.9562 11.8352 35.0147 12.0926 35.0732C12.1784 35.0966 12.2642 35.1096 12.35 35.1226C12.3928 35.1291 12.4357 35.1356 12.4786 35.1434L12.5311 35.1522C12.6515 35.1725 12.7654 35.1917 12.8881 35.2019C12.9287 35.2059 12.9679 35.2114 13.0067 35.2168C13.0796 35.227 13.151 35.237 13.2273 35.237C13.4379 35.2604 13.6484 35.2604 13.8473 35.2604H13.9293C17.24 35.2136 19.8956 33.0727 19.8956 30.4054C19.8956 29.8906 19.7669 29.4695 19.5797 29.0717C18.157 27.8188 15.5558 27.1747 12.8103 26.4948C11.5825 26.1908 10.3258 25.8796 9.13277 25.5036L8.87152 25.4212C5.32492 24.3028 1.68376 23.1547 1.80936 18.4961V18.4142C1.80556 18.3457 1.80051 18.2772 1.79544 18.2083C1.78492 18.0653 1.77427 17.9207 1.77427 17.7708C1.99654 11.6172 13.4262 5.58067 21.6153 9.07859C22.0022 8.22534 22.3987 7.38649 22.7961 6.54574C23.2758 5.53067 23.7571 4.51255 24.2241 3.4632C24.5634 2.70278 25.008 2.48051 25.7099 2.37522C25.8854 2.34012 26.0725 2.35182 26.2363 2.38692C26.2948 2.39861 26.3533 2.41031 26.4118 2.43371C27.2892 2.63259 27.6402 3.56849 27.5583 4.14173C27.0786 7.41737 26.985 10.7632 27.1839 14.1909C27.2073 14.6238 26.985 14.8461 26.6926 15.0567C26.3884 15.2672 26.0141 15.4778 25.7099 15.2321C19.4511 10.2017 11.8001 12.3191 11.8001 15.6533Z" fill="#463A6D"/>
<path fill-rule="evenodd" clip-rule="evenodd" d="M212.872 9.80406C212.901 9.85378 212.931 9.9035 212.96 9.95615L212.948 9.97954C213.135 10.3071 213.299 10.6581 213.451 11.009C213.451 11.009 214.867 14.2964 214.89 17.8645C214.96 27.282 205.473 30.1599 198.278 30.0663C198.383 31.2362 198.559 32.2188 198.816 33.0378C199.214 33.5759 199.705 33.9386 200.302 34.0789C202.08 34.3378 201.877 36.4164 201.786 37.3443C201.782 37.3808 201.779 37.4155 201.776 37.4482C201.694 38.2671 201.448 38.8754 200.805 38.8754C196.605 38.1735 190.744 38.1618 186.462 38.8169C185.784 38.9105 184.906 38.2086 184.743 36.0677C184.735 36.0248 184.726 35.9832 184.717 35.9416C184.698 35.8584 184.68 35.7752 184.672 35.6817V35.6349C184.59 34.7692 184.731 33.9737 185.374 33.7982C187.562 33.1898 188.451 30.0078 188.474 24.5094C188.498 21.222 188.51 17.9464 188.521 14.659C188.521 14.4189 188.518 14.1849 188.515 13.9571C188.512 13.741 188.51 13.5304 188.51 13.3254V13.0446C188.498 12.6352 188.474 12.2374 188.451 11.863V11.7811C188.428 11.4185 188.393 11.0792 188.357 10.7634C188.346 10.7166 188.334 10.6581 188.334 10.6113C188.287 10.272 188.241 9.95615 188.17 9.66368V9.61688C188.124 9.37121 188.065 9.13723 187.995 8.91496C187.597 8.35342 187.082 7.97906 186.439 7.74508C185.749 7.48771 184.614 7.04316 184.93 4.04828C185.012 3.10068 185.327 2.32857 186.053 2.23498C188.474 1.90741 195.084 2.22328 197.553 2.46895C202.513 2.9603 206.28 4.17697 208.994 5.88498C209 5.88498 209.009 5.89083 209.017 5.89668C209.026 5.90253 209.035 5.90838 209.041 5.90838C209.099 5.94343 209.146 5.97849 209.193 6.01354C209.321 6.09533 209.45 6.17755 209.567 6.25934C209.754 6.38803 209.942 6.51672 210.117 6.6571C210.141 6.6805 210.176 6.6805 210.176 6.6805H210.152L210.199 6.72729C210.258 6.77409 210.319 6.82381 210.38 6.87353C210.442 6.92325 210.503 6.97297 210.562 7.01976C210.796 7.21864 211.03 7.42922 211.24 7.65149C211.334 7.74508 211.427 7.83867 211.509 7.93226C211.72 8.16624 211.93 8.41191 212.118 8.65759C212.159 8.71023 212.197 8.7658 212.235 8.82137C212.273 8.87694 212.311 8.9325 212.352 8.98515C212.504 9.19573 212.644 9.418 212.784 9.65198C212.814 9.70462 212.843 9.75434 212.872 9.80406ZM205.695 18.3558C205.73 18.0985 205.765 17.8294 205.789 17.5486L205.8 17.5252C205.835 17.0456 205.859 16.5425 205.859 15.9927C205.87 15.4312 205.847 14.893 205.812 14.39C205.802 14.2328 205.782 14.085 205.761 13.9297L205.754 13.8752C205.742 13.7769 205.732 13.6774 205.722 13.5782C205.701 13.3705 205.68 13.1644 205.648 12.9744C205.629 12.8667 205.607 12.7658 205.585 12.6662C205.566 12.582 205.547 12.4987 205.531 12.4129C205.515 12.3353 205.5 12.2548 205.485 12.174C205.457 12.0234 205.429 11.8714 205.391 11.7344C205.36 11.6017 205.318 11.4795 205.276 11.3573C205.256 11.2962 205.235 11.2352 205.215 11.1728C205.198 11.126 205.183 11.0763 205.169 11.0267C205.154 10.9769 205.139 10.9272 205.122 10.8803C203.355 7.99076 200.36 7.6281 198.278 7.49941C198.266 10.465 198.252 13.4336 198.237 16.4021C198.222 19.3707 198.208 22.3393 198.196 25.3049H198.22C200.77 25.2815 204.186 24.6966 205.403 20.0054C205.414 19.9703 205.426 19.9235 205.426 19.8884C205.508 19.5725 205.578 19.2332 205.637 18.8706C205.649 18.7848 205.658 18.6958 205.667 18.6052C205.675 18.5229 205.684 18.4394 205.695 18.3558Z" fill="#463A6D"/>
</svg>
