<svg width="301" height="79" viewBox="0 0 301 79" fill="none" xmlns="http://www.w3.org/2000/svg">
<path d="M140.717 30.281C142.374 30.281 143.08 28.8565 143.08 27.9177C143.08 26.694 142.374 25.4961 141.565 24.8745C140.581 24.1235 139.377 23.8386 138.347 23.8386C134.526 23.8386 133.117 27.2042 131.715 30.5516C130.328 33.8633 128.948 37.1572 125.249 37.1572V0.69772C122.312 1.63337 119.064 1.01702 116.332 0.498419C114.167 0.0875316 112.325 -0.261991 111.218 0.270385C109.612 1.04088 109.573 2.51713 110.201 3.13871C110.531 3.46892 110.926 3.61785 111.315 3.61785C112.076 3.61785 112.448 3.292 112.85 2.93935C113.325 2.5235 113.842 2.07037 115.09 2.07037C116.248 2.07037 117.014 2.23474 118.196 2.48853C118.977 2.65617 119.94 2.86283 121.318 3.08691L121.364 37.1637C117.699 37.1637 116.345 34.1761 114.977 31.1572C113.58 28.0743 112.168 24.9587 108.265 24.9587C107.236 24.9587 106.031 25.2436 105.047 25.9947C104.231 26.6098 103.532 27.8076 103.532 29.0378C103.532 29.9702 104.238 31.4011 105.896 31.4011C107.339 31.4011 108.259 30.1709 108.259 29.0378C108.259 28.5341 108.074 28.1057 107.917 27.7426C107.802 27.4756 107.702 27.2439 107.702 27.0436C107.702 26.6422 108.103 26.4868 108.641 26.4868C110.752 26.4868 111.858 28.9453 113.045 31.5849C114.167 34.0784 115.361 36.7334 117.544 37.6299V37.714C112.726 37.9601 111.017 40.9838 111.017 43.9622C111.017 46.0786 112.052 48.6787 113.088 51.2798C114.124 53.8828 115.161 56.4868 115.161 58.6081C115.161 61.3858 113.866 62.0462 112.921 62.0462C112.053 62.0462 111.878 61.5024 111.982 61.1139C112.023 60.9561 112.094 60.786 112.171 60.5995C112.339 60.1966 112.539 59.717 112.539 59.1196C112.539 57.9866 111.626 56.7564 110.175 56.7564C108.518 56.7564 107.812 57.9089 107.812 59.1196C107.812 62.098 110.732 63.2506 113.115 63.2506C116.657 63.2506 118.903 60.9196 118.903 58.2714C118.903 56.0675 117.875 53.3875 116.847 50.7081C115.229 46.492 113.611 42.2774 116.003 39.9219C116.514 39.4169 117.233 38.9766 118.243 38.9766C119.829 38.9766 121.37 40.1744 121.37 42.1039V74.2836L121.369 74.3652C121.344 75.7133 121.304 77.8771 118.088 77.8771V78.9648H128.544V77.8771C125.312 77.8771 125.281 75.692 125.262 74.3454L125.262 74.2836V42.1039C125.262 40.1744 126.803 38.9766 128.389 38.9766C129.399 38.9766 130.118 39.4169 130.629 39.9219C133.131 42.3825 131.245 49.1574 129.561 55.2045C128.612 58.6094 127.728 61.7836 127.728 63.8268C127.728 66.475 129.969 68.8059 133.517 68.8059C135.9 68.8059 138.82 67.6599 138.82 64.675C138.82 63.4642 138.114 62.3117 136.456 62.3117C135.013 62.3117 134.093 63.5419 134.093 64.675C134.093 65.2724 134.293 65.7519 134.46 66.1547C134.538 66.3413 134.609 66.5114 134.65 66.6692C134.754 67.0577 134.579 67.6016 133.711 67.6016C132.772 67.6016 131.471 66.9412 131.471 64.1635C131.471 62.0462 132.554 58.2585 133.637 54.4708C134.72 50.6831 135.803 46.8952 135.803 44.778C135.803 41.7996 133.899 37.9601 129.088 37.714V37.6299C131.283 36.7284 132.479 33.7843 133.606 31.0084C134.786 28.1018 135.891 25.3796 137.991 25.3796C138.528 25.3796 138.93 25.535 138.93 25.9364C138.93 26.1367 138.83 26.3684 138.715 26.6354C138.558 26.9985 138.373 27.4269 138.373 27.9306C138.373 29.0637 139.286 30.2939 140.736 30.2939L140.717 30.281Z" fill="#EB305D"/>
<path d="M160.167 37.4421V56.2966L160.168 56.3585C160.187 57.705 160.217 59.8901 163.45 59.8901V60.9779H153.362V59.8901C156.579 59.8901 156.619 57.7263 156.643 56.3783L156.645 56.2966V40.8025L147.535 57.0736C147.625 58.3621 148.085 59.8901 150.792 59.8901V60.9779H140.704V59.8901C143.927 59.8901 143.967 57.7261 143.992 56.3781L143.993 56.2966V37.4485L143.992 37.3867C143.973 36.0401 143.943 33.855 140.71 33.855V32.7673H150.798V33.855C147.575 33.855 147.535 36.019 147.51 37.367L147.509 37.4485V53.6743L156.645 37.3579C156.625 36.0047 156.58 33.8486 153.362 33.8486V32.7608H163.45V33.8486C160.233 33.8486 160.193 36.0124 160.169 37.3604L160.167 37.4421Z" fill="#EB305D"/>
<path fill-rule="evenodd" clip-rule="evenodd" d="M102.083 39.5813L102.082 39.663H102.069V62.4801H105.546L105.475 73.1505H103.811V71.5448C103.811 66.5786 102.729 64.5779 97.815 64.5779H91.4114C86.4776 64.5779 85.3964 66.5722 85.3964 71.5448V73.1441H83.7064V62.4866H85.3575C92.169 56.9118 93.956 44.6227 93.1596 36.581C90.9963 36.581 90.4077 37.065 89.9278 37.4595C89.5976 37.731 89.319 37.9601 88.6143 37.9601C87.423 37.9601 87.0863 37.2155 87.0863 36.4709C87.0863 35.7652 87.4359 35.0594 89.0611 34.9882C89.1453 34.9817 89.2359 34.9817 89.3266 34.9817H105.365V36.0695C102.148 36.0695 102.108 38.2333 102.083 39.5813ZM88.1158 62.4801H98.197V36.5745H95.1992C95.1907 36.9404 95.1832 37.3126 95.1756 37.691C95.0376 44.5449 94.8593 53.4049 88.1158 62.4801Z" fill="#EB305D"/>
<path d="M31.4161 13.7638V56.2902L31.417 56.352C31.4357 57.6985 31.4661 59.8837 34.6988 59.8837V60.9714H24.2421V59.8837C27.459 59.8837 27.4986 57.7198 27.5233 56.3718L27.5248 56.2902V20.6659L15.4299 56.3549C15.4493 57.7017 15.4817 59.8837 18.7126 59.8837V60.9714H8.25585V59.8837C11.4728 59.8837 11.5124 57.7198 11.537 56.3718L11.5386 56.2902V11.4135L11.4932 3.08691C10.1153 2.86283 9.15226 2.65617 8.37107 2.48853C7.18846 2.23474 6.42255 2.07037 5.2645 2.07037C4.01719 2.07037 3.49982 2.5235 3.025 2.93936C2.62235 3.292 2.25031 3.61785 1.48971 3.61785C1.10122 3.61785 0.706257 3.46892 0.376043 3.13871C-0.25201 2.51066 -0.206686 1.04088 1.39258 0.270385C2.50042 -0.262065 4.34359 0.0876282 6.50969 0.498589C9.24294 1.01715 12.4904 1.63327 15.4234 0.69772V50.9291L27.5248 14.9422V13.7638L27.5239 13.702C27.5052 12.3554 27.4748 10.1703 24.2421 10.1703V9.08256H34.6988V10.1703C31.4819 10.1703 31.4423 12.3341 31.4177 13.6822L31.4161 13.7638Z" fill="#EB305D"/>
<path d="M243.646 60.9714H253.734V59.8837C250.501 59.8837 250.471 57.6985 250.452 56.352L250.451 56.2902V35.2148L250.453 35.1331C250.478 33.7851 250.517 31.6213 253.734 31.6213V30.5335H243.854V31.6213C247.086 31.6213 247.117 33.8064 247.135 35.1529L247.136 35.2148V35.7327L237.049 52.9168V37.4421L237.05 37.3606C237.075 36.0126 237.114 33.8486 240.338 33.8486V32.7608H230.25V33.8486C233.483 33.8486 233.513 36.0337 233.532 37.3803L233.533 37.4421V56.2902L233.531 56.3717C233.507 57.7197 233.467 59.8837 230.244 59.8837V60.9714H240.331V59.8837C237.099 59.8837 237.068 57.6985 237.049 56.352L237.049 56.2902V56.1866L246.929 39.1061V56.2837L246.928 56.3654C246.903 57.7134 246.863 59.8772 243.646 59.8772V60.9714Z" fill="#EB305D"/>
<path fill-rule="evenodd" clip-rule="evenodd" d="M200.414 32.3853C205.264 32.8839 206.883 35.6615 206.883 39.8831L206.876 39.8766C206.874 42.6508 206.877 45.6727 206.881 48.7461C206.886 53.4341 206.892 58.2421 206.876 62.4736C204.979 63.6779 202.81 63.9563 201.023 64.0081C187.957 64.4096 183.819 42.3565 202.991 39.2292V37.6169C202.991 33.2529 197.714 32.5213 195.506 35.163C196.413 35.5385 197.054 36.432 197.054 37.4745C197.054 38.8536 195.934 39.9867 194.555 39.9738C192.599 39.9543 192.036 38.3227 192.036 37.3709C192.036 33.499 196.808 32.0162 200.414 32.3853ZM200.991 62.4671C201.729 62.4283 202.298 62.234 202.985 61.865L202.998 40.6148C190.819 42.2205 192.127 62.9333 200.991 62.4671Z" fill="#EB305D"/>
<path fill-rule="evenodd" clip-rule="evenodd" d="M81.6475 39.8831C81.6475 35.6615 80.0288 32.8839 75.1792 32.3853C71.5727 32.0162 66.8008 33.499 66.8008 37.3709C66.8008 38.3227 67.3641 39.9543 69.3195 39.9738C70.6986 39.9867 71.8188 38.8536 71.8188 37.4745C71.8188 36.432 71.1778 35.5385 70.2713 35.163C72.4792 32.5213 77.7561 33.2529 77.7561 37.6169V39.2292C58.5843 42.3565 62.7217 64.4096 75.7878 64.0081C77.5748 63.9563 79.7439 63.6779 81.641 62.4736C81.6566 58.2422 81.651 53.4344 81.6455 48.7465L81.6455 48.7358C81.6419 45.6659 81.6384 42.6477 81.641 39.8766L81.6475 39.8831ZM77.7497 61.865C77.0633 62.234 76.4935 62.4283 75.7554 62.4671C66.8914 62.9333 65.5835 42.2205 77.7626 40.6148L77.7497 61.865Z" fill="#EB305D"/>
<path d="M185.347 39.663V66.3067H185.354L185.355 66.3685C185.374 67.7151 185.404 69.9002 188.637 69.9002V70.988H178.18V69.9002C181.397 69.9002 181.436 67.7364 181.461 66.3883L181.463 66.3067V44.3701H171.951V66.3067L171.952 66.3685C171.971 67.7151 172.001 69.9002 175.234 69.9002V70.988H164.777V69.9002C167.994 69.9002 168.034 67.7364 168.058 66.3884L168.06 66.3067V39.663L168.059 39.6011C168.04 38.2546 168.01 36.0695 164.777 36.0695V34.9817H175.234V36.0695C172.01 36.0695 171.971 38.2335 171.946 39.5815L171.945 39.663V42.7774H181.456V39.663L181.455 39.6011C181.437 38.2546 181.406 36.0695 178.173 36.0695V34.9817H188.63V36.0695C185.413 36.0695 185.374 38.2333 185.349 39.5813L185.347 39.663Z" fill="#EB305D"/>
<path d="M49.1829 60.7449L42.6693 34.9817H34.919V36.0695C38.1517 36.0695 38.1821 38.2546 38.2009 39.6011L38.2017 39.663V68.4628L38.2002 68.5444C38.1755 69.8925 38.1359 72.0563 34.919 72.0563V73.1441H43.1549V72.0563C39.9222 72.0563 39.8918 69.8712 39.8731 68.5247L39.8722 68.4628V39.1774L48.2506 70.8649L56.2599 40.6536V67.1096C56.1433 68.3657 55.6189 69.7772 53.016 69.7772V70.8649L63.0649 70.852V69.7642C59.8321 69.7642 59.8018 67.5791 59.783 66.2326L59.7822 66.1707L59.8275 39.663L59.829 39.5813C59.8537 38.2391 59.8936 36.0695 63.1102 36.0695V34.9817H55.8261L49.1829 60.7449Z" fill="#EB305D"/>
<path d="M297.719 29.7008L297.717 29.7824L297.724 29.776L297.678 56.2837L297.679 56.3456C297.698 57.6921 297.728 59.8772 300.961 59.8772V60.965L290.705 60.9779V59.8902C293.308 59.8902 293.832 58.4787 293.949 57.2225V30.7666L285.94 60.9779L278.384 28.6753V57.7794L278.385 57.8608C278.404 59.2533 278.448 62.5513 281.666 62.5513V63.6391H273.43V62.5513C276.629 62.5513 276.686 59.2934 276.711 57.8866L276.713 57.7794V29.7824L276.712 29.7206C276.694 28.3741 276.663 26.1889 273.43 26.1889V25.1012H281.181L286.866 50.4499L293.509 25.1012H301V26.1889C297.783 26.1889 297.743 28.3527 297.719 29.7008Z" fill="#EB305D"/>
<path d="M274.797 34.9882H265.861V36.0695C268.102 36.0695 269.83 36.7299 269.202 39.1321L265.084 55.5068L261.212 40.809C260.235 36.9047 261.594 36.076 264.307 36.076V34.9947H253.242V36.076C256.033 36.076 256.463 37.5927 256.952 39.314L256.953 39.3167C256.986 39.4356 257.021 39.5555 257.056 39.6759L263.226 62.1628C262.934 63.292 262.5 64.955 262.228 65.9997L262.041 66.7146C261.064 70.47 260.222 71.7973 258.94 71.7973C258.165 71.7973 257.923 71.3288 257.66 70.8188C257.337 70.1913 256.982 69.5012 255.56 69.5441C253.954 69.5959 252.905 70.7614 252.905 72.2765C252.905 73.8951 254.064 75.1707 256.402 75.1707C260.707 75.1707 262.313 72.2376 263.893 66.1254C263.906 66.0736 270.782 40.1551 270.782 40.1551C270.816 40.0262 270.85 39.8897 270.885 39.748C271.26 38.2233 271.787 36.0824 274.797 36.0824V34.9882Z" fill="#EB305D"/>
<path fill-rule="evenodd" clip-rule="evenodd" d="M213.26 34.9817C214.918 34.1983 216.692 33.9846 218.201 33.9393L218.207 33.9458C231.267 33.5508 235.404 59.7089 216.252 62.8492V68.4693L216.253 68.5311C216.271 69.8777 216.302 72.0628 219.534 72.0628V73.1506H209.078V72.0628C212.294 72.0628 212.334 69.8931 212.359 68.5509L212.36 68.4693V62.7197L212.36 62.7012C212.353 62.533 212.347 62.3701 212.347 62.1952C212.351 59.3235 212.348 55.492 212.344 51.4878C212.341 47.3035 212.338 42.9307 212.341 39.268C212.27 37.8954 211.862 36.0695 209.078 36.0695V34.9817H213.26ZM216.245 36.0889V61.4636C228.411 59.8384 227.097 35.0206 218.239 35.4868C217.501 35.5256 216.932 35.7199 216.245 36.0889Z" fill="#EB305D"/>
</svg>
