<svg width="21" height="15" viewBox="0 0 21 15" fill="none" xmlns="http://www.w3.org/2000/svg">
<path d="M20.5626 2.34243C20.3206 1.41992 19.6101 0.694967 18.706 0.448024C17.0673 0 10.5 0 10.5 0C10.5 0 3.93275 0 2.29569 0.448024C1.39159 0.694967 0.6811 1.41992 0.439085 2.34243C0 4.01282 0 7.5 0 7.5C0 7.5 0 10.9872 0.439085 12.6576C0.6811 13.5801 1.39159 14.305 2.29569 14.552C3.93275 15 10.5 15 10.5 15C10.5 15 17.0673 15 18.7043 14.552C19.6084 14.305 20.3189 13.5801 20.5609 12.6576C21 10.9872 21 7.5 21 7.5C21 7.5 21 4.01282 20.5609 2.34243H20.5626ZM8.39965 10.7138V4.28622L13.8554 7.5L8.39965 10.7138Z" fill="#1D1F24"/>
</svg>
