<svg width="281" height="74" viewBox="0 0 281 74" fill="none" xmlns="http://www.w3.org/2000/svg">
<path d="M131.367 28.3771C132.914 28.3771 133.573 27.0422 133.573 26.1624C133.573 25.0156 132.914 23.8931 132.159 23.3106C131.24 22.6067 130.116 22.3398 129.155 22.3398C125.587 22.3398 124.272 25.4937 122.963 28.6307C121.668 31.7342 120.38 34.821 116.926 34.821V0.653851C114.185 1.53067 111.153 0.953073 108.602 0.467082C106.581 0.0820282 104.862 -0.245519 103.828 0.253384C102.329 0.975439 102.293 2.35887 102.879 2.94137C103.187 3.25082 103.556 3.39038 103.919 3.39038C104.629 3.39038 104.976 3.08502 105.352 2.75455C105.795 2.36484 106.278 1.9402 107.443 1.9402C108.524 1.9402 109.239 2.09423 110.343 2.33206C111.072 2.48917 111.971 2.68283 113.257 2.89283L113.3 34.827C109.878 34.827 108.615 32.0273 107.337 29.1982C106.033 26.3091 104.715 23.3895 101.072 23.3895C100.11 23.3895 98.9862 23.6564 98.0674 24.3603C97.3058 24.9367 96.653 26.0592 96.653 27.2121C96.653 28.0858 97.3119 29.4268 98.8593 29.4268C100.207 29.4268 101.066 28.2739 101.066 27.2121C101.066 26.7401 100.893 26.3386 100.747 25.9983C100.639 25.7481 100.546 25.5309 100.546 25.3433C100.546 24.9671 100.92 24.8214 101.422 24.8214C103.393 24.8214 104.425 27.1254 105.534 29.599C106.581 31.9357 107.696 34.4239 109.733 35.2639V35.3428C105.236 35.5734 103.641 38.407 103.641 41.1981C103.641 43.1815 104.607 45.6181 105.574 48.0556C106.541 50.495 107.509 52.9353 107.509 54.9232C107.509 57.5262 106.3 58.1451 105.418 58.1451C104.608 58.1451 104.444 57.6355 104.541 57.2714C104.579 57.1235 104.646 56.9641 104.718 56.7893C104.875 56.4118 105.061 55.9624 105.061 55.4026C105.061 54.3407 104.209 53.1879 102.855 53.1879C101.307 53.1879 100.648 54.2679 100.648 55.4026C100.648 58.1937 103.375 59.2737 105.599 59.2737C108.905 59.2737 111.003 57.0894 111.003 54.6077C111.003 52.5423 110.043 50.0308 109.083 47.5199C107.572 43.5689 106.063 39.6193 108.295 37.4119C108.772 36.9386 109.443 36.526 110.386 36.526C111.867 36.526 113.306 37.6485 113.306 39.4567V69.6131L113.304 69.6896C113.281 70.9529 113.244 72.9806 110.241 72.9806V74H120.003V72.9806C116.985 72.9806 116.957 70.9329 116.939 69.671L116.939 69.6131V39.4567C116.939 37.6485 118.377 36.526 119.858 36.526C120.801 36.526 121.472 36.9386 121.949 37.4119C124.285 39.7177 122.524 46.0667 120.952 51.7336C120.067 54.9244 119.242 57.899 119.242 59.8138C119.242 62.2954 121.333 64.4798 124.645 64.4798C126.87 64.4798 129.596 63.4058 129.596 60.6086C129.596 59.474 128.937 58.3939 127.39 58.3939C126.042 58.3939 125.183 59.5468 125.183 60.6086C125.183 61.1685 125.37 61.6178 125.526 61.9953C125.599 62.1701 125.665 62.3296 125.703 62.4775C125.8 62.8415 125.637 63.3512 124.827 63.3512C123.95 63.3512 122.735 62.7323 122.735 60.1293C122.735 58.1451 123.746 54.5956 124.757 51.046C125.768 47.4965 126.779 43.9467 126.779 41.9626C126.779 39.1715 125.002 35.5734 120.511 35.3428V35.2639C122.56 34.4191 123.676 31.6602 124.728 29.0588C125.83 26.3349 126.862 23.7839 128.822 23.7839C129.324 23.7839 129.699 23.9295 129.699 24.3057C129.699 24.4934 129.605 24.7105 129.498 24.9607C129.351 25.301 129.179 25.7025 129.179 26.1745C129.179 27.2364 130.031 28.3892 131.385 28.3892L131.367 28.3771Z" fill="white"/>
<path d="M149.525 35.0879V52.757L149.526 52.815C149.543 54.0768 149.571 56.1246 152.589 56.1246V57.144H143.172V56.1246C146.175 56.1246 146.212 54.0968 146.235 52.8335L146.237 52.757V38.2371L137.732 53.4851C137.816 54.6926 138.246 56.1246 140.772 56.1246V57.144H131.355V56.1246C134.364 56.1246 134.401 54.0966 134.424 52.8334L134.425 52.757V35.094L134.425 35.036C134.407 33.7742 134.379 31.7264 131.361 31.7264V30.7071H140.778V31.7264C137.769 31.7264 137.732 33.7543 137.709 35.0176L137.708 35.094V50.2996L146.237 35.0091C146.218 33.7409 146.176 31.7204 143.172 31.7204V30.701H152.589V31.7204C149.586 31.7204 149.549 33.7482 149.526 35.0114L149.525 35.0879Z" fill="white"/>
<path fill-rule="evenodd" clip-rule="evenodd" d="M95.3004 37.0927L95.299 37.1692H95.2869V58.5517H98.5329L98.4664 68.5513H96.9129V67.0465C96.9129 62.3926 95.9035 60.5177 91.3157 60.5177H85.3376C80.7316 60.5177 79.7222 62.3865 79.7222 67.0465V68.5452H78.1446V58.5578H79.6859C86.0448 53.3335 87.7131 41.8171 86.9696 34.281C84.95 34.281 84.4005 34.7346 83.9525 35.1043C83.6443 35.3587 83.3842 35.5734 82.7263 35.5734C81.6141 35.5734 81.2998 34.8756 81.2998 34.1778C81.2998 33.5165 81.6262 32.8551 83.1434 32.7883C83.222 32.7823 83.3066 32.7823 83.3912 32.7823H98.3636V33.8016C95.3604 33.8016 95.3235 35.8294 95.3004 37.0927ZM82.2609 58.5517H91.6723V34.2749H88.8736C88.8657 34.6178 88.8587 34.9666 88.8516 35.3212C88.7228 41.7441 88.5563 50.0471 82.2609 58.5517Z" fill="white"/>
<path d="M29.3287 12.8984V52.751L29.3295 52.8089C29.347 54.0708 29.3753 56.1185 32.3933 56.1185V57.1379H22.6313V56.1185C25.6345 56.1185 25.6714 54.0908 25.6945 52.8275L25.6959 52.751V19.3666L14.4047 52.8117C14.4228 54.0737 14.453 56.1185 17.4693 56.1185V57.1379H7.70729V56.1185C10.7105 56.1185 10.7474 54.0908 10.7705 52.8275L10.7719 52.751V10.6959L10.7296 2.89283C9.44316 2.68283 8.54413 2.48917 7.81485 2.33206C6.71082 2.09423 5.9958 1.9402 4.9147 1.9402C3.75027 1.9402 3.26727 2.36484 2.824 2.75455C2.44811 3.08502 2.10079 3.39038 1.39072 3.39038C1.02805 3.39038 0.65933 3.25082 0.351057 2.94137C-0.235265 2.3528 -0.192953 0.975439 1.30005 0.253384C2.33428 -0.245588 4.05498 0.0821186 6.07715 0.467241C8.62879 0.953199 11.6604 1.53058 14.3986 0.653851V47.7269L25.6959 14.0028V12.8984L25.6951 12.8405C25.6776 11.5786 25.6492 9.53087 22.6313 9.53087V8.5115H32.3933V9.53087C29.3901 9.53087 29.3531 11.5586 29.3301 12.8219L29.3287 12.8984Z" fill="white"/>
<path d="M227.457 57.1379H236.875V56.1185C233.857 56.1185 233.828 54.0708 233.811 52.8089L233.81 52.751V33.0007L233.812 32.9242C233.835 31.6609 233.872 29.6331 236.875 29.6331V28.6137H227.651V29.6331C230.669 29.6331 230.697 31.6809 230.714 32.9427L230.715 33.0007V33.4861L221.298 49.5897V35.088L221.299 35.0116C221.322 33.7484 221.359 31.7204 224.368 31.7204V30.701H214.951V31.7204C217.969 31.7204 217.997 33.7681 218.015 35.03L218.016 35.088V52.751L218.014 52.8274C217.991 54.0906 217.954 56.1185 214.945 56.1185V57.1379H224.362V56.1185C221.345 56.1185 221.316 54.0708 221.299 52.8089L221.298 52.751V52.6539L230.522 36.6473V52.7449L230.52 52.8214C230.497 54.0847 230.46 56.1125 227.457 56.1125V57.1379Z" fill="white"/>
<path fill-rule="evenodd" clip-rule="evenodd" d="M187.098 30.3491C191.625 30.8163 193.136 33.4194 193.136 37.3755L193.13 37.3694C193.128 39.9692 193.131 42.801 193.134 45.6812C193.14 50.0745 193.145 54.5801 193.13 58.5456C191.359 59.6742 189.334 59.9351 187.666 59.9837C175.468 60.3599 171.606 39.6933 189.503 36.7627V35.2518C189.503 31.1622 184.577 30.4765 182.516 32.9522C183.362 33.3041 183.961 34.1414 183.961 35.1183C183.961 36.4107 182.915 37.4726 181.627 37.4604C179.802 37.4422 179.276 35.9132 179.276 35.0212C179.276 31.3928 183.731 30.0033 187.098 30.3491ZM187.636 58.5396C188.325 58.5032 188.857 58.3211 189.497 57.9753L189.51 38.0611C178.14 39.5659 179.361 58.9764 187.636 58.5396Z" fill="white"/>
<path fill-rule="evenodd" clip-rule="evenodd" d="M76.2224 37.3755C76.2224 33.4194 74.7113 30.8163 70.1839 30.3491C66.8171 30.0033 62.3622 31.3928 62.3622 35.0212C62.3622 35.9132 62.8881 37.4422 64.7135 37.4604C66.001 37.4726 67.0467 36.4107 67.0467 35.1183C67.0467 34.1414 66.4483 33.3041 65.6021 32.9522C67.6633 30.4765 72.5896 31.1622 72.5896 35.2518V36.7627C54.6917 39.6933 58.5541 60.3599 70.7521 59.9837C72.4204 59.9351 74.4453 59.6742 76.2163 58.5456C76.2309 54.5802 76.2257 50.0747 76.2206 45.6816L76.2206 45.6716C76.2172 42.7947 76.2139 39.9663 76.2163 37.3694L76.2224 37.3755ZM72.5836 57.9753C71.9428 58.3211 71.4109 58.5032 70.7218 58.5396C62.4468 58.9764 61.2258 39.5659 72.5957 38.0611L72.5836 57.9753Z" fill="white"/>
<path d="M173.032 37.1692V62.1377H173.038L173.039 62.1957C173.056 63.4575 173.085 65.5053 176.103 65.5053V66.5247H166.341V65.5053C169.344 65.5053 169.381 63.4775 169.404 62.2142L169.405 62.1377V41.5804H160.526V62.1377L160.527 62.1957C160.544 63.4576 160.573 65.5053 163.59 65.5053V66.5247H153.828V65.5053C156.832 65.5053 156.869 63.4776 156.892 62.2143L156.893 62.1377V37.1692L156.892 37.1112C156.875 35.8494 156.846 33.8016 153.828 33.8016V32.7823H163.59V33.8016C160.581 33.8016 160.544 35.8296 160.521 37.0929L160.52 37.1692V40.0878H169.399V37.1692L169.398 37.1113C169.381 35.8494 169.353 33.8016 166.335 33.8016V32.7823H176.097V33.8016C173.093 33.8016 173.056 35.8294 173.033 37.0927L173.032 37.1692Z" fill="white"/>
<path d="M45.915 56.9256L39.8342 32.7823H32.5988V33.8016C35.6167 33.8016 35.6451 35.8494 35.6626 37.1112L35.6634 37.1692V64.1583L35.662 64.2348C35.639 65.4981 35.602 67.5258 32.5988 67.5258V68.5452H40.2875V67.5258C37.2696 67.5258 37.2412 65.4781 37.2237 64.2162L37.2229 64.1583V36.7141L45.0446 66.4094L52.5217 38.0976V62.8901C52.4129 64.0673 51.9233 65.39 49.4934 65.39V66.4094L58.8745 66.3972V65.3779C55.8566 65.3779 55.8282 63.3301 55.8107 62.0683L55.8099 62.0103L55.8522 37.1692L55.8537 37.0927C55.8767 35.8349 55.9139 33.8016 58.9168 33.8016V32.7823H52.1167L45.915 56.9256Z" fill="white"/>
<path d="M277.937 27.8334L277.935 27.9099L277.941 27.9038L277.899 52.7449L277.9 52.8029C277.917 54.0648 277.946 56.1125 280.964 56.1125V57.1319L271.389 57.144V56.1246C273.819 56.1246 274.309 54.8019 274.417 53.6247V28.8322L266.94 57.144L259.886 26.8723V54.1466L259.887 54.2229C259.905 55.5278 259.947 58.6184 262.951 58.6184V59.6378H255.262V58.6184C258.248 58.6184 258.302 55.5654 258.325 54.247L258.327 54.1466V27.9099L258.326 27.852C258.309 26.5901 258.28 24.5423 255.262 24.5423V23.523H262.498L267.805 47.2779L274.006 23.523H281V24.5423C277.997 24.5423 277.96 26.5701 277.937 27.8334Z" fill="white"/>
<path d="M256.538 32.7884H248.196V33.8017C250.288 33.8017 251.901 34.4206 251.315 36.6717L247.471 52.0168L243.856 38.2432C242.943 34.5844 244.213 33.8077 246.745 33.8077V32.7944H236.415V33.8077C239.021 33.8077 239.423 35.2291 239.879 36.8422L239.879 36.8447C239.911 36.9561 239.943 37.0685 239.976 37.1814L245.736 58.2544C245.463 59.3126 245.058 60.871 244.804 61.8501L244.63 62.52C243.717 66.0393 242.931 67.2831 241.735 67.2831C241.011 67.2831 240.786 66.844 240.54 66.3661C240.238 65.7781 239.906 65.1314 238.579 65.1716C237.08 65.2201 236.101 66.3123 236.101 67.7321C236.101 69.2491 237.183 70.4444 239.365 70.4444C243.385 70.4444 244.884 67.6957 246.359 61.9678C246.371 61.9193 252.79 37.6304 252.79 37.6304C252.822 37.5096 252.853 37.3817 252.886 37.2488C253.236 35.8201 253.728 33.8138 256.538 33.8138V32.7884Z" fill="white"/>
<path fill-rule="evenodd" clip-rule="evenodd" d="M199.09 32.7823C200.638 32.0481 202.294 31.8479 203.702 31.8054L203.708 31.8115C215.9 31.4413 219.763 55.9548 201.883 58.8976V64.1644L201.884 64.2223C201.901 65.4842 201.929 67.5319 204.947 67.5319V68.5513H195.185V67.5319C198.188 67.5319 198.226 65.4987 198.249 64.2408L198.25 64.1644V58.7763L198.249 58.7589C198.244 58.6013 198.238 58.4487 198.238 58.2848C198.241 55.5936 198.238 52.003 198.235 48.2506C198.232 44.3293 198.229 40.2315 198.232 36.7991C198.165 35.5128 197.785 33.8017 195.185 33.8017V32.7823H199.09ZM201.877 33.8199V57.5991C213.234 56.0761 212.007 32.8187 203.738 33.2556C203.049 33.292 202.517 33.474 201.877 33.8199Z" fill="white"/>
</svg>
