<svg width="24" height="24" viewBox="0 0 24 24" fill="none" xmlns="http://www.w3.org/2000/svg">
<path fill-rule="evenodd" clip-rule="evenodd" d="M6.18415 20.3412C7.04091 20.3412 7.73807 21.0371 7.73807 21.8939C7.73807 22.7506 7.04091 23.4478 6.18415 23.4478C5.3274 23.4478 4.63144 22.7506 4.63144 21.8939C4.63144 21.0371 5.3274 20.3412 6.18415 20.3412ZM19.7198 20.3412C20.5777 20.3412 21.2749 21.0371 21.2749 21.8939C21.2749 22.7506 20.5777 23.4478 19.7198 23.4478C18.863 23.4478 18.1671 22.7506 18.1671 21.8939C18.1671 21.0371 18.863 20.3412 19.7198 20.3412ZM1.05348 0.0113838L3.54934 0.44336C3.95132 0.514156 4.2573 0.847738 4.2921 1.25572L4.57408 4.61673L5.62264 4.61718C5.79375 4.61726 5.96304 4.61733 6.13054 4.61741L8.0556 4.61833C8.20905 4.6184 8.36078 4.61848 8.51081 4.61856L10.6364 4.61972C10.7699 4.6198 10.9018 4.61988 11.0322 4.61996L12.5217 4.62091C12.6397 4.62099 12.7562 4.62107 12.8712 4.62115L14.1813 4.62211C14.2848 4.62219 14.3868 4.62227 14.4874 4.62236L15.6297 4.62334C15.7195 4.62342 15.8081 4.6235 15.8953 4.62358L16.6461 4.62433C16.7257 4.62441 16.8042 4.6245 16.8814 4.62458L17.7508 4.62559C17.8186 4.62568 17.8853 4.62576 17.9508 4.62584L18.6849 4.62687C18.7418 4.62696 18.7977 4.62704 18.8525 4.62713L19.3191 4.62791C19.368 4.62799 19.4159 4.62808 19.4629 4.62817L19.9826 4.62922C20.0223 4.62931 20.0612 4.6294 20.0992 4.62949L20.4191 4.63029C20.4522 4.63038 20.4845 4.63047 20.516 4.63056L20.8589 4.63164C20.8846 4.63173 20.9096 4.63182 20.934 4.63191L21.1353 4.63273C21.1558 4.63282 21.1756 4.63291 21.1949 4.63301L21.3985 4.63412C21.4133 4.63421 21.4276 4.6343 21.4414 4.63439L21.5524 4.63524C21.5633 4.63533 21.5738 4.63543 21.5839 4.63552L21.6638 4.63637C21.6715 4.63647 21.6789 4.63656 21.6859 4.63666L21.7403 4.63752C21.7454 4.63761 21.7503 4.63771 21.7548 4.63781L21.7892 4.63868C21.7924 4.63877 21.7953 4.63887 21.798 4.63897L21.823 4.64014C21.8245 4.64024 21.8259 4.64034 21.8272 4.64044C21.8389 4.64153 21.8406 4.64173 21.8423 4.64193C22.5107 4.73912 23.0987 5.08831 23.4994 5.62588C23.9002 6.16225 24.0682 6.82341 23.9722 7.48577L22.8335 15.3549C22.6187 16.8525 21.318 17.9816 19.806 17.9816H6.70156C5.12125 17.9816 3.78333 16.7481 3.65493 15.1702L2.55579 2.09807L0.747493 1.78609C0.25672 1.69969 -0.070862 1.23532 0.0131333 0.744544C0.0995286 0.253771 0.573502 -0.065412 1.05348 0.0113838ZM5.38192 6.41704L4.72527 6.41663L5.44883 15.0226C5.50163 15.6849 6.0428 16.1817 6.70396 16.1817H19.8036C20.4288 16.1817 20.9628 15.7161 21.0516 15.0982L22.1915 7.22779C22.2179 7.0406 22.1711 6.85341 22.0571 6.70222C21.9443 6.54983 21.7787 6.45143 21.5915 6.42503C21.5829 6.42536 21.5622 6.42567 21.53 6.42594L21.3994 6.42669C21.3721 6.4268 21.3421 6.4269 21.3095 6.427L20.6297 6.42804C20.5723 6.42808 20.5127 6.42811 20.4508 6.42814L18.8526 6.42808C18.7634 6.42804 18.6725 6.42801 18.58 6.42796L16.756 6.42686C16.6467 6.42678 16.5362 6.42669 16.4247 6.42661L15.3925 6.42578C15.275 6.42568 15.1565 6.42558 15.0373 6.42548L13.9441 6.42452C13.8206 6.42441 13.6965 6.4243 13.572 6.42418L12.8189 6.42349C12.6925 6.42338 12.5658 6.42326 12.4388 6.42314L11.2896 6.42206C11.1615 6.42195 11.0333 6.42183 10.9051 6.42171L10.1363 6.42099C10.0084 6.42087 9.88062 6.42075 9.75305 6.42064L8.99084 6.41995C8.86444 6.41983 8.7384 6.41972 8.6128 6.41961L7.49625 6.41865C7.37395 6.41855 7.25231 6.41845 7.1314 6.41835L5.72037 6.41727C5.6065 6.41719 5.49366 6.41712 5.38192 6.41704ZM17.8764 9.05205C18.3732 9.05205 18.7764 9.45523 18.7764 9.952C18.7764 10.4488 18.3732 10.8519 17.8764 10.8519H14.5502C14.0522 10.8519 13.6503 10.4488 13.6503 9.952C13.6503 9.45523 14.0522 9.05205 14.5502 9.05205H17.8764Z" fill="#1D1F24"/>
</svg>
