<svg width="128" height="108" viewBox="0 0 128 108" fill="none" xmlns="http://www.w3.org/2000/svg">
<path d="M123.793 78.3206H121.39C120.188 78.3206 118.986 77.4212 118.986 75.9223V73.5239H123.493L123.793 78.3206ZM106.667 104.103C101.859 104.103 97.953 100.205 97.953 95.4087C97.953 90.6121 101.859 86.7148 106.667 86.7148C111.474 86.7148 115.38 90.6121 115.38 95.4087C115.38 100.205 111.474 104.103 106.667 104.103ZM36.3568 104.103C31.5493 104.103 27.6432 100.205 27.6432 95.4087C27.6432 90.6121 31.5493 86.7148 36.3568 86.7148C41.1643 86.7148 45.0704 90.6121 45.0704 95.4087C45.0704 100.205 41.1643 104.103 36.3568 104.103ZM93.7465 61.5323V48.6412H111.474L114.779 61.5323H93.7465ZM93.7465 39.9473H108.77C111.174 39.9473 113.277 42.0458 113.277 44.4441H93.7465V39.9473ZM54.6855 23.1589C56.7887 17.1631 59.7934 8.46912 61.5962 6.07078C63.3991 3.67245 66.7042 3.37266 69.108 5.17141C71.5117 6.97016 71.8122 10.2679 70.0094 12.6662C69.4084 13.5656 67.0047 15.9639 59.1925 20.7606C57.6901 21.3602 56.1878 22.2595 54.6855 23.1589ZM43.2676 20.4608C35.4554 15.6641 33.0516 13.2658 32.4507 12.3664C30.6479 9.96808 31.2488 6.67037 33.3521 4.87162C34.2535 4.27203 35.4554 3.67245 36.6573 3.67245C38.1596 3.67245 39.9624 4.27203 40.8638 5.77099C42.6667 8.16932 45.9718 16.8633 47.7747 22.8591C46.5728 22.2595 45.0704 21.3602 43.2676 20.4608ZM118.986 61.5323L115.681 48.3414C116.582 48.0416 117.183 47.4421 117.183 46.5427V44.4441C117.183 39.9473 113.277 36.05 108.77 36.05H93.7465V31.5531C93.7465 29.1548 91.9437 27.356 89.5399 27.356H61.5962L78.723 20.4608C79.6244 20.161 80.2253 18.9618 79.9249 17.7627C79.6244 16.8633 78.4225 16.2637 77.2207 16.5635L63.3991 22.5593C67.6056 19.8612 71.8122 16.8633 73.3146 14.7647C76.3192 10.5677 75.7183 4.87162 71.5117 1.8737C67.3052 -1.12422 61.5962 -0.524637 58.5916 3.67245C56.1878 6.67037 53.1831 15.0645 51.3803 20.7606C49.5775 14.7647 46.5728 6.37057 44.169 3.67245C41.1643 -0.524637 35.1549 -1.12422 31.2488 1.8737C27.0423 4.87162 26.4413 10.8674 29.446 14.7647C30.9484 16.8633 35.1549 19.8612 39.3615 22.5593L25.5399 16.8633C24.6385 16.5635 23.4366 16.8633 22.8357 18.0625C22.5352 18.9618 22.8357 20.161 24.0376 20.7606L41.1643 27.6558H13.2207C10.8169 27.6558 9.01408 29.4545 9.01408 31.8529V68.1277C9.01408 69.3269 9.91549 70.2262 11.1174 70.2262C12.3192 70.2262 13.2207 69.3269 13.2207 68.1277V31.5531H89.8404V67.8279C89.8404 69.0271 90.7418 69.9264 91.9437 69.9264C93.1455 69.9264 94.047 69.0271 94.047 67.8279V65.4296H117.484C120.488 65.4296 122.892 67.2283 123.793 69.9264H117.484C116.282 69.9264 115.38 70.8258 115.38 72.025V76.2221C115.38 79.8196 118.085 82.5177 121.69 82.5177H124.094V91.2117H118.986C117.183 86.415 112.676 82.8175 106.967 82.8175C101.559 82.8175 96.7512 86.415 94.9484 91.2117H94.047V76.2221C94.047 75.0229 93.1455 74.1235 91.9437 74.1235C90.7418 74.1235 89.8404 75.0229 89.8404 76.2221V91.2117H48.3756C46.5728 86.415 42.0657 82.8175 36.3568 82.8175C30.9484 82.8175 26.1408 86.415 24.338 91.2117H12.9202V86.7148H21.3333C22.5352 86.7148 23.4366 85.8154 23.4366 84.6162C23.4366 83.4171 22.5352 82.5177 21.3333 82.5177H2.10329C0.901408 82.5177 0 83.4171 0 84.6162C0 85.8154 0.901408 86.7148 2.10329 86.7148H8.71362V91.2117C8.71362 93.61 10.5164 95.4087 12.9202 95.4087H23.7371C23.7371 102.304 29.446 108 36.3568 108C43.2676 108 48.9765 102.304 48.9765 95.4087H94.047C94.047 102.304 99.7559 108 106.667 108C113.577 108 119.286 102.304 119.286 95.4087H125.897C127.099 95.4087 128 94.5094 128 93.3102V72.025C128 66.6287 124.094 62.4316 118.986 61.5323ZM36.3568 91.2117C33.9531 91.2117 32.1502 93.0104 32.1502 95.4087C32.1502 97.8071 33.9531 99.6058 36.3568 99.6058C38.7606 99.6058 40.5634 97.8071 40.5634 95.4087C40.5634 93.0104 38.7606 91.2117 36.3568 91.2117ZM106.667 91.2117C104.263 91.2117 102.46 93.0104 102.46 95.4087C102.46 97.8071 104.263 99.6058 106.667 99.6058C109.07 99.6058 110.873 97.8071 110.873 95.4087C110.873 93.0104 109.07 91.2117 106.667 91.2117ZM83.23 82.8175H53.4836C52.2817 82.8175 51.3803 83.7169 51.3803 84.916C51.3803 86.1152 52.2817 87.0146 53.4836 87.0146H83.23C84.4319 87.0146 85.3333 86.1152 85.3333 84.916C85.3333 83.7169 84.4319 82.8175 83.23 82.8175ZM32.1502 74.1235H6.61033C5.40845 74.1235 4.50704 75.0229 4.50704 76.2221C4.50704 77.4212 5.40845 78.3206 6.61033 78.3206H32.1502C33.3521 78.3206 34.2535 77.4212 34.2535 76.2221C34.2535 75.0229 33.3521 74.1235 32.1502 74.1235ZM51.3803 51.6391C52.5822 53.7377 54.385 55.5364 56.4883 56.7356C54.385 57.9348 52.5822 59.7335 51.3803 61.8321C50.1784 59.7335 48.3756 57.9348 46.2723 56.7356C48.3756 55.5364 50.1784 53.7377 51.3803 51.6391ZM38.7606 58.8341C44.77 58.8341 49.277 63.6308 49.277 69.3268C49.277 70.526 50.1784 71.4254 51.3803 71.4254C52.5822 71.4254 53.4836 70.526 53.4836 69.3268C53.4836 63.331 58.2911 58.8341 64 58.8341C65.2019 58.8341 66.1033 57.9348 66.1033 56.7356C66.1033 55.5364 65.2019 54.6371 64 54.6371C57.9906 54.6371 53.4836 49.8404 53.4836 44.1443C53.4836 42.9452 52.5822 42.0458 51.3803 42.0458C50.1784 42.0458 49.277 42.9452 49.277 44.1443C49.277 50.1402 44.4695 54.6371 38.7606 54.6371C37.5587 54.6371 36.6573 55.5364 36.6573 56.7356C36.6573 57.9348 37.5587 58.8341 38.7606 58.8341ZM83.23 47.442V43.5448H79.9249V40.247H76.0188V43.5448H72.7136V47.442H76.0188V50.7398H79.9249V47.442H83.23ZM20.7324 69.0271H24.338V65.1298H20.7324V69.0271Z" fill="#1D1F24"/>
</svg>
