<svg width="40" height="43" viewBox="0 0 40 43" fill="none" xmlns="http://www.w3.org/2000/svg">
<path fill-rule="evenodd" clip-rule="evenodd" d="M13.973 5.33733C9.6102 6.4018 5.86207 9.10046 3.46327 12.7586C3.26837 13.0435 2.95352 13.2384 2.6087 13.2384C2.24888 13.2534 1.91904 13.1035 1.70915 12.8336C0.644678 11.4843 0 9.77512 0 7.91605C0 3.55323 3.55323 0 7.93104 0C10.7646 0 13.2384 1.48426 14.6327 3.71814C14.8276 4.003 14.8576 4.37781 14.7226 4.69266C14.5877 5.02249 14.3178 5.26237 13.973 5.33733ZM25.3823 3.68816C26.7766 1.46927 29.2504 0 32.069 0C36.4468 0 40 3.55323 40 7.93104C40 9.74513 39.3853 11.4093 38.3658 12.7436C38.1409 13.0135 37.8111 13.1634 37.4663 13.1634C37.1064 13.1484 36.7916 12.9685 36.5967 12.6837C34.1829 9.04049 30.4198 6.35683 26.042 5.32234C25.7121 5.23239 25.4273 4.99251 25.2923 4.67766C25.1574 4.34783 25.1874 3.98801 25.3823 3.68816ZM37.5112 24.2729C37.5112 21.2145 36.7166 18.3359 35.3373 15.8322C32.7586 11.1995 28.1409 7.87113 22.7136 7.03155C21.8441 6.89661 20.9745 6.80666 20.06 6.80666C19.1454 6.80666 18.2009 6.89661 17.3013 7.04654C11.889 7.9161 7.28635 11.2594 4.75261 15.9071C3.38829 18.3959 2.60868 21.2444 2.60868 24.2729C2.60868 29.4603 4.90254 34.108 8.50074 37.3164L7.03147 39.4004C6.40179 40.2849 6.61168 41.5293 7.49624 42.159C7.84107 42.3989 8.24587 42.5188 8.63567 42.5188C9.25037 42.5188 9.86506 42.234 10.2549 41.6792L11.7241 39.6103C14.1979 40.9596 17.0465 41.7392 20.06 41.7392C23.0735 41.7392 25.922 40.9746 28.3958 39.6103L29.8651 41.6792C30.2549 42.219 30.8696 42.5188 31.4843 42.5188C31.8741 42.5188 32.2789 42.3989 32.6237 42.159C33.5232 41.5293 33.7331 40.2849 33.1035 39.4004L31.6342 37.3164C35.2474 34.123 37.5262 29.4603 37.5262 24.2729H37.5112ZM20.045 36.8517C13.1184 36.8517 7.46626 31.2145 7.46626 24.2729C7.46626 22.114 8.02098 20.075 8.9805 18.2909C10.8096 14.9026 14.1529 12.4738 18.1109 11.8591C18.7406 11.7542 19.3853 11.6942 20.045 11.6942C20.7046 11.6942 21.2744 11.7542 21.8741 11.8441C25.8471 12.4289 29.2354 14.8576 31.0945 18.2609C32.069 20.045 32.6237 22.099 32.6237 24.2729C32.6237 31.2145 26.9865 36.8517 20.045 36.8517ZM22.3089 24.2429L27.1065 27.2114C27.7661 27.6162 27.961 28.4708 27.5562 29.1305C27.2864 29.5652 26.8366 29.7901 26.3718 29.7901C26.117 29.7901 25.8621 29.7152 25.6372 29.5802L21.0345 26.7466C20.7346 26.8966 20.3898 26.9865 20.03 26.9865C18.7406 26.9865 17.7062 25.952 17.7062 24.6627C17.7062 23.8831 18.096 23.1934 18.6957 22.7736L18.9205 16.7466C18.9505 15.967 19.5952 15.3673 20.3598 15.3973C21.1394 15.4273 21.7391 16.072 21.7092 16.8366L21.4843 22.8486C21.9041 23.1934 22.2039 23.6882 22.3089 24.2429Z" fill="#1D1F24"/>
</svg>
