<svg width="42" height="36" viewBox="0 0 42 36" fill="none" xmlns="http://www.w3.org/2000/svg">
<path d="M25.348 6.07178C27.2881 7.28614 28.656 9.35194 28.8933 11.7388C29.6889 12.1017 30.5683 12.325 31.4895 12.325C34.8953 12.325 37.6451 9.57527 37.6451 6.16949C37.6451 2.76371 34.8953 0 31.5035 0C28.1117 0 25.4038 2.70788 25.348 6.07178ZM21.3141 18.6899C24.7198 18.6899 27.4696 15.9402 27.4696 12.5344C27.4696 9.12861 24.7198 6.37886 21.3141 6.37886C17.9083 6.37886 15.1585 9.12861 15.1585 12.5344C15.1585 15.9402 17.9222 18.6899 21.3141 18.6899ZM23.9242 19.1087H18.7039C14.349 19.1087 10.8175 22.654 10.8175 26.995V33.4855L11.2782 33.6251C15.4237 34.9232 19.0389 35.3559 21.998 35.3559C27.7906 35.3559 31.1545 33.7089 31.3639 33.5972L31.7687 33.3878H31.8106V26.995C31.8106 22.6401 28.2792 19.1087 23.9242 19.1087ZM34.1137 12.7577H28.9352C28.8794 14.8375 28 16.7079 26.5902 18.0479C30.4566 19.1924 33.2901 22.7797 33.2901 27.0229V28.991C38.4128 28.8096 41.3579 27.3579 41.5533 27.2602L41.9581 27.0508H42V20.658C42 16.3031 38.4546 12.7717 34.1137 12.7717V12.7577ZM10.4965 12.339C11.6969 12.339 12.8275 11.99 13.7767 11.3898C14.0837 9.42173 15.1306 7.70489 16.6381 6.5324C16.6381 6.42074 16.652 6.30907 16.652 6.18345C16.666 2.76371 13.9023 0 10.4965 0C7.09073 0 4.34098 2.76371 4.34098 6.15553C4.34098 9.54736 7.10469 12.3111 10.4965 12.3111V12.339ZM16.0239 18.0479C14.6281 16.7079 13.7488 14.8514 13.679 12.7856C13.4835 12.7856 13.2881 12.7577 13.1067 12.7577H7.88634C3.53141 12.7577 0 16.2891 0 20.6441V27.1346L0.460618 27.2742C3.79661 28.3071 6.75573 28.7956 9.33799 28.9492V27.0229C9.33799 22.7936 12.1715 19.2064 16.0379 18.0479H16.0239Z" fill="#1D1F24"/>
</svg>
