<svg width="25" height="24" viewBox="0 0 25 24" fill="none" xmlns="http://www.w3.org/2000/svg">
<path fill-rule="evenodd" clip-rule="evenodd" d="M12.2813 1.24687C14.2324 0.0133411 16.8242 -0.32744 19.0633 0.39012C23.9338 1.96083 25.4457 7.27054 24.0934 11.4955C22.0067 18.1311 13.0948 23.0809 12.7168 23.2885C12.5825 23.3629 12.4337 23.4001 12.2849 23.4001C12.1361 23.4001 11.9885 23.3641 11.8541 23.2909C11.4785 23.0857 2.6314 18.2091 0.475122 11.4967C0.473922 11.4967 0.473922 11.4955 0.473922 11.4955C-0.879604 7.26934 0.627514 1.95843 5.49325 0.39012C7.77792 -0.349039 10.2678 -0.0238569 12.2813 1.24687ZM6.04522 2.10363C2.10823 3.37316 1.11949 7.60772 2.18863 10.9471C3.87093 16.1813 10.5174 20.4134 12.2837 21.461C14.056 20.4026 20.7504 16.1237 22.3787 10.9519C23.4479 7.60892 22.4555 3.37436 18.5125 2.10363C16.6022 1.49046 14.374 1.86364 12.8356 3.05397C12.5141 3.30116 12.0677 3.30596 11.7437 3.06117C10.1142 1.83604 7.98551 1.47726 6.04522 2.10363ZM17.3606 4.48657C18.9961 5.01575 20.142 6.46407 20.2824 8.17637C20.322 8.67194 19.9537 9.10632 19.4581 9.14592C19.4329 9.14832 19.4089 9.14952 19.3837 9.14952C18.9193 9.14952 18.5257 8.79314 18.4873 8.32276C18.4081 7.33642 17.7482 6.50366 16.8086 6.20008C16.3347 6.04649 16.0755 5.53892 16.2279 5.06734C16.3826 4.59457 16.8854 4.33778 17.3606 4.48657Z" fill="#1D1F24"/>
</svg>
