<svg width="33" height="48" viewBox="0 0 33 48" fill="none" xmlns="http://www.w3.org/2000/svg">
<path fill-rule="evenodd" clip-rule="evenodd" d="M16.2095 6.0056C16.2095 9.33154 13.5141 12.027 10.1882 12.027V12.0427C6.86222 12.0427 4.16679 9.3473 4.16679 6.02137C4.16679 2.69543 6.87799 0 10.1882 0C13.4983 0 16.2095 2.67967 16.2095 6.0056ZM30.4118 24.4007C30.4118 26.4499 28.7567 28.105 26.7075 28.105C24.6584 28.105 23.0033 26.4499 23.0033 24.4007C23.0033 22.3516 24.6584 20.6965 26.7075 20.6965C28.7567 20.6965 30.4118 22.3516 30.4118 24.4007ZM27.8109 28.7985C27.4641 28.6724 27.0858 28.5936 26.7075 28.5936C26.3292 28.5936 25.9509 28.6724 25.6041 28.7985C24.6268 29.098 20.9856 30.6585 20.4497 37.6887C20.4024 38.335 20.8911 38.9024 21.5373 38.9497H21.6319C22.2467 38.9497 22.7511 38.4768 22.7984 37.8621C22.9245 36.2543 23.2082 35.0248 23.5865 34.0948V36.7114C23.5865 36.9636 23.618 37.2001 23.6653 37.4207V45.3336C23.6653 46.0902 24.2801 46.705 25.0367 46.705C25.7933 46.705 26.408 46.0902 26.408 45.3336V39.8324H26.7233H27.0385V45.3336C27.0385 46.0902 27.6533 46.705 28.4099 46.705C29.1665 46.705 29.7812 46.0902 29.7812 45.3336V37.4207C29.8285 37.1843 29.8601 36.9479 29.8601 36.7114V34.1106C30.2384 35.0563 30.5221 36.2858 30.6482 37.8779C30.6955 38.4926 31.2157 38.9655 31.8146 38.9655H31.9092C32.5555 38.9182 33.0441 38.3507 32.9968 37.7045C32.4767 30.6901 28.8197 29.1138 27.8424 28.83L27.8109 28.7985ZM10.1882 12.8309C10.8187 12.8309 11.4177 12.957 11.9851 13.1619H12.0009C13.5772 13.6348 19.5197 16.1883 20.3709 27.6006C20.4497 28.6567 19.6616 29.5709 18.6055 29.6497H18.4636C17.4705 29.6497 16.6351 28.8931 16.5563 27.8843C16.3672 25.2834 15.8785 23.2816 15.2795 21.7526V27.6321C15.2795 28.0419 15.2322 28.4202 15.1377 28.7985V44.908C15.1377 46.1375 14.1446 47.1306 12.9151 47.1306C11.6856 47.1306 10.6926 46.1375 10.6926 44.908V32.7077C10.5192 32.7392 10.3616 32.7392 10.1882 32.7392C10.0148 32.7392 9.84138 32.7234 9.68375 32.7077V44.908C9.68375 46.1375 8.6907 47.1306 7.46121 47.1306C6.23171 47.1306 5.23866 46.1375 5.23866 44.908V28.7985C5.14408 28.4202 5.0968 28.0261 5.0968 27.6321V21.7526C4.49781 23.2816 4.00917 25.2834 3.82001 27.8843C3.7412 28.8931 2.90578 29.6497 1.91272 29.6497H1.77086C0.714755 29.5709 -0.0733824 28.6567 0.00543128 27.6006C0.872382 16.1883 6.79917 13.6348 8.39121 13.1619C8.94291 12.9412 9.55765 12.8309 10.1882 12.8309Z" fill="#1D1F24"/>
</svg>
