<svg width="24" height="22" viewBox="0 0 24 22" fill="none" xmlns="http://www.w3.org/2000/svg">
<path fill-rule="evenodd" clip-rule="evenodd" d="M6.37897 19.0852C7.18283 19.0852 7.83694 19.7382 7.83694 20.542C7.83694 21.3459 7.18283 22 6.37897 22C5.57512 22 4.92213 21.3459 4.92213 20.542C4.92213 19.7382 5.57512 19.0852 6.37897 19.0852ZM19.0788 19.0852C19.8838 19.0852 20.5379 19.7382 20.5379 20.542C20.5379 21.3459 19.8838 22 19.0788 22C18.275 22 17.622 21.3459 17.622 20.542C17.622 19.7382 18.275 19.0852 19.0788 19.0852ZM1.56509 0.0106809L3.90685 0.415985C4.284 0.48241 4.57109 0.795394 4.60374 1.17818L4.86832 4.33167L5.85214 4.3321C6.01268 4.33217 6.17152 4.33224 6.32867 4.33231L8.13487 4.33317C8.27884 4.33324 8.42121 4.33331 8.56198 4.33338L10.5563 4.33448C10.6816 4.33455 10.8054 4.33463 10.9277 4.3347L12.3252 4.33559C12.4359 4.33567 12.5452 4.33574 12.6531 4.33581L13.8824 4.33672C13.9794 4.3368 14.0751 4.33687 14.1696 4.33695L15.2413 4.33787C15.3256 4.33795 15.4087 4.33802 15.4905 4.3381L16.1949 4.3388C16.2697 4.33888 16.3433 4.33896 16.4157 4.33904L17.2314 4.33998C17.2951 4.34006 17.3576 4.34014 17.4191 4.34022L18.1079 4.34118C18.1613 4.34127 18.2137 4.34135 18.2651 4.34143L18.7029 4.34216C18.7488 4.34224 18.7937 4.34232 18.8378 4.3424L19.3254 4.34339C19.3627 4.34347 19.3992 4.34356 19.4348 4.34364L19.7349 4.34439C19.766 4.34447 19.7963 4.34456 19.8259 4.34464L20.1477 4.34566C20.1718 4.34574 20.1952 4.34583 20.2181 4.34591L20.407 4.34668C20.4262 4.34677 20.4448 4.34686 20.4629 4.34694L20.6539 4.34798C20.6678 4.34807 20.6812 4.34816 20.6941 4.34824L20.7983 4.34904C20.8086 4.34912 20.8184 4.34921 20.8279 4.3493L20.9029 4.3501C20.9101 4.35019 20.917 4.35028 20.9236 4.35037L20.9746 4.35118C20.9794 4.35127 20.984 4.35136 20.9882 4.35145L21.0205 4.35226C21.0235 4.35235 21.0262 4.35245 21.0288 4.35254L21.0522 4.35364C21.0536 4.35373 21.0549 4.35382 21.0561 4.35392C21.0671 4.35494 21.0687 4.35513 21.0703 4.35531C21.6974 4.44651 22.2491 4.77413 22.6251 5.27851C23.0012 5.78176 23.1588 6.4021 23.0687 7.02357L22.0003 14.4069C21.7988 15.8119 20.5783 16.8713 19.1598 16.8713H6.86444C5.3817 16.8713 4.12638 15.714 4.00592 14.2335L2.97465 1.96852L1.278 1.6758C0.817529 1.59474 0.510173 1.15904 0.588983 0.698572C0.670043 0.238101 1.11475 -0.0613731 1.56509 0.0106809ZM5.62627 6.02082L5.01017 6.02044L5.68906 14.095C5.73859 14.7165 6.24635 15.1826 6.86669 15.1826H19.1575C19.7441 15.1826 20.2451 14.7457 20.3284 14.1659L21.398 6.78151C21.4227 6.60588 21.3788 6.43025 21.2719 6.28839C21.166 6.14541 21.0107 6.05309 20.835 6.02832C20.8269 6.02863 20.8075 6.02891 20.7773 6.02917L20.6548 6.02987C20.6292 6.02998 20.601 6.03008 20.5704 6.03017L19.9326 6.03114C19.8787 6.03118 19.8228 6.03121 19.7648 6.03124L18.2652 6.03118C18.1815 6.03114 18.0963 6.03111 18.0095 6.03107L16.2981 6.03003C16.1955 6.02996 16.0919 6.02988 15.9872 6.0298L15.0188 6.02902C14.9085 6.02893 14.7974 6.02884 14.6855 6.02874L13.6597 6.02784C13.5439 6.02774 13.4275 6.02763 13.3106 6.02752L12.6041 6.02687C12.4855 6.02676 12.3666 6.02665 12.2474 6.02654L11.1692 6.02554C11.049 6.02542 10.9287 6.02531 10.8084 6.0252L10.0871 6.02453C9.9671 6.02442 9.8472 6.02431 9.72751 6.0242L9.01236 6.02355C8.89377 6.02344 8.77551 6.02334 8.65767 6.02323L7.61006 6.02233C7.49531 6.02223 7.38118 6.02214 7.26773 6.02205L5.94382 6.02104C5.83699 6.02097 5.73111 6.02089 5.62627 6.02082ZM17.3493 8.49313C17.8154 8.49313 18.1937 8.87142 18.1937 9.33751C18.1937 9.80361 17.8154 10.1819 17.3493 10.1819H14.2285C13.7612 10.1819 13.3841 9.80361 13.3841 9.33751C13.3841 8.87142 13.7612 8.49313 14.2285 8.49313H17.3493Z" fill="#1D1F24"/>
</svg>
