<svg width="20" height="20" viewBox="0 0 20 20" fill="none" xmlns="http://www.w3.org/2000/svg">
<path fill-rule="evenodd" clip-rule="evenodd" d="M14.5665 0C17.6642 0 20 2.78667 20 6.48205V13.5262C20 15.4174 19.3935 17.1262 18.2912 18.3385C17.3023 19.4246 16.0195 20 14.5814 20H5.41581C3.98047 20 2.6986 19.4256 1.70884 18.3385C0.606512 17.1262 0 15.4174 0 13.5262V6.48205C0 2.78667 2.33581 0 5.43349 0H14.5665ZM14.5665 1.53846H5.43349C3.09395 1.53846 1.39535 3.61744 1.39535 6.48205V13.5262C1.39535 15.0062 1.85674 16.3282 2.69395 17.2482C3.41581 18.0431 4.35814 18.4615 5.4186 18.4615H14.5665C14.5684 18.4595 14.5758 18.4615 14.5814 18.4615C15.6428 18.4615 16.5842 18.0431 17.306 17.2482C18.1442 16.3282 18.6047 15.0062 18.6047 13.5262V6.48205C18.6047 3.61744 16.906 1.53846 14.5665 1.53846ZM16.0326 6.28595C16.2753 6.61518 16.2298 7.09928 15.9312 7.368L11.7972 11.0726C11.2744 11.5301 10.6493 11.7588 10.0251 11.7588C9.40279 11.7588 8.78233 11.5321 8.26326 11.0788L4.09116 7.37005C3.7907 7.10338 3.74419 6.61826 3.98512 6.288C4.22791 5.95877 4.66698 5.90646 4.96651 6.1721L9.13488 9.87672C9.6586 10.3342 10.3963 10.3342 10.9237 9.87262L15.0502 6.17415C15.3498 5.90441 15.7888 5.95569 16.0326 6.28595Z" fill="#DDDDDD"/>
</svg>
