<svg width="24" height="22" viewBox="0 0 24 22" fill="none" xmlns="http://www.w3.org/2000/svg">
<path fill-rule="evenodd" clip-rule="evenodd" d="M11.5465 1.17227C13.3808 0.0125429 15.8176 -0.307849 17.9227 0.366779C22.5018 1.84351 23.9233 6.83554 22.6519 10.8077C20.69 17.0463 12.3113 21.6999 11.956 21.8951C11.8296 21.965 11.6897 22 11.5499 22C11.41 22 11.2712 21.9662 11.1449 21.8973C10.7917 21.7044 2.47396 17.1197 0.446695 10.8088C0.445567 10.8088 0.445567 10.8077 0.445567 10.8077C-0.826976 6.83441 0.589969 1.84126 5.16458 0.366779C7.31256 -0.328156 9.65345 -0.0224295 11.5465 1.17227ZM5.68352 1.97776C1.98209 3.17134 1.05251 7.15254 2.05768 10.2922C3.63933 15.2131 9.8881 19.1921 11.5487 20.1769C13.215 19.1819 19.5089 15.159 21.0398 10.2967C22.0449 7.15367 21.112 3.17246 17.4049 1.97776C15.6089 1.40128 13.5139 1.75214 12.0677 2.87125C11.7653 3.10365 11.3457 3.10816 11.0411 2.87802C9.50905 1.72619 7.50773 1.38887 5.68352 1.97776ZM16.3219 4.21814C17.8595 4.71565 18.9369 6.07731 19.0689 7.68717C19.1061 8.15309 18.7598 8.56148 18.2939 8.59871C18.2702 8.60096 18.2476 8.60209 18.2239 8.60209C17.7873 8.60209 17.4173 8.26703 17.3812 7.8248C17.3068 6.89747 16.6863 6.11454 15.8029 5.82912C15.3573 5.68472 15.1136 5.20752 15.2569 4.76416C15.4025 4.31967 15.8751 4.07825 16.3219 4.21814Z" fill="#1D1F24"/>
</svg>
