<svg width="104" height="82" viewBox="0 0 104 82" fill="none" xmlns="http://www.w3.org/2000/svg">
<path d="M93.5991 0H10.4009C4.65932 0 0 4.59222 0 10.2511V71.7489C0 77.4078 4.65932 82 10.4009 82H93.5991C99.3407 82 104 77.4078 104 71.7489V10.2511C104 4.59222 99.3407 0 93.5991 0Z" fill="#1D1F24"/>
<path fill-rule="evenodd" clip-rule="evenodd" d="M88.2885 59.9067L86.4633 59.6717C85.8855 59.5994 85.4819 59.4728 85.216 59.283C84.9591 59.1203 84.8216 58.84 84.8216 58.4965C84.8216 58.1078 84.9867 57.8185 85.3444 57.6016C85.6929 57.4027 86.2707 57.2942 87.087 57.2942C87.7382 57.2942 88.3711 57.3846 88.9856 57.5654C89.6001 57.7462 90.1413 58.0264 90.6365 58.37L92.0123 56.4083C91.3795 55.875 90.6365 55.4953 89.8019 55.2331C88.9673 54.98 88.0317 54.8444 87.032 54.8444C86.2891 54.8444 85.6195 54.9168 84.9867 55.0975C84.3905 55.2422 83.8493 55.5043 83.4274 55.8117C82.9964 56.119 82.6478 56.5258 82.4277 57.0049C82.1709 57.466 82.0517 58.0084 82.0517 58.614C82.0517 59.735 82.3818 60.5757 83.0514 61.1633C83.7209 61.7508 84.6656 62.1124 85.8763 62.2842L87.7933 62.5192C88.4261 62.6096 88.8755 62.7543 89.1507 62.9622C89.4258 63.1611 89.5634 63.4594 89.5634 63.8029C89.5634 64.2277 89.3616 64.5532 88.9673 64.7882C88.5545 65.0233 87.9492 65.1588 87.1237 65.1588C86.3624 65.1588 85.6195 65.0684 84.9316 64.8877C84.2437 64.7069 83.5375 64.3905 82.8496 63.9746L81.6756 66.2255C82.4736 66.7589 83.3082 67.1205 84.152 67.3284C84.9867 67.5273 85.9405 67.6358 86.9586 67.6358C87.8299 67.6358 88.5912 67.5454 89.2607 67.3465C89.9486 67.1657 90.5081 66.9035 90.9667 66.5419C91.4161 66.2165 91.7463 65.7916 91.9848 65.2944C92.2233 64.7973 92.3425 64.2729 92.3425 63.6673C92.3425 62.6187 92.0032 61.778 91.3428 61.1542C90.6641 60.4853 89.646 60.0875 88.2885 59.9067ZM20.9669 63.0345L18.7748 62.9079V60.6299H23.6268V66.3069C22.9389 66.8583 22.1593 67.2651 21.3063 67.5182C20.4716 67.7804 19.5545 67.9069 18.5914 67.9069C17.6008 67.9069 16.6928 67.7533 15.8765 67.464C15.0602 67.1657 14.354 66.7499 13.7762 66.1984C13.1983 65.647 12.7306 64.9871 12.4187 64.2006C12.0977 63.4142 11.9326 62.5283 11.9326 61.5429C11.9326 60.657 12.0885 59.8344 12.4187 59.066C12.7214 58.2796 13.18 57.6016 13.7578 57.014C14.354 56.4264 15.0786 55.9654 15.9132 55.6219C16.7479 55.2693 17.7109 55.1066 18.7748 55.1066C19.7104 55.1066 20.5634 55.2603 21.3797 55.5315C22.1593 55.8117 22.8838 56.2275 23.5167 56.797L21.9575 58.7768C21.5264 58.3971 21.0495 58.0988 20.49 57.8999C19.9488 57.7191 19.3343 57.6287 18.6831 57.6287C18.087 57.6287 17.555 57.7191 17.0689 57.8999C16.5644 58.0807 16.1517 58.3429 15.8032 58.6683C15.4546 59.0208 15.1886 59.4186 14.9869 59.9158C14.8034 60.3858 14.7117 60.9192 14.7117 61.5068C14.7117 62.1124 14.8034 62.6548 15.0052 63.1339C15.207 63.613 15.4638 64.0198 15.8398 64.3453C16.1792 64.6888 16.6011 64.9509 17.0872 65.1137C17.5642 65.2945 18.087 65.3848 18.6648 65.3848C19.5545 65.3848 20.3157 65.2131 20.9669 64.9057V63.0345ZM28.387 67.6448L33.4957 55.3507H36.5683L41.7137 67.6448H38.5586L35.0458 58.3428L31.5054 67.6448H28.387ZM49.84 55.3597L53.2978 61.1361L56.7923 55.3597H59.7823V67.6358H57.0491V59.3734H56.884L53.9674 64.2278H52.6283L49.6749 59.3734H49.5098V67.6358H46.795V55.3597H49.84ZM76.0532 55.3688H65.5606V57.8276H76.0532V55.3688ZM75.0443 62.6548H68.0554V65.1769H76.0532V67.6358H65.5606V60.3587H75.0443V62.6548Z" fill="#FEDD11"/>
<path fill-rule="evenodd" clip-rule="evenodd" d="M30.1022 25.0674C30.68 25.6369 31.3863 26.0889 32.1842 26.4233C32.9822 26.7307 33.8718 26.9024 34.8441 26.9024C35.8254 26.9024 36.7243 26.7397 37.5406 26.3872C38.3385 26.0527 39.0448 25.6007 39.6226 25.0312C40.2004 24.4436 40.659 23.7656 40.98 22.9792C41.2919 22.2108 41.4662 21.3882 41.4662 20.5023C41.4662 19.5892 41.3011 18.7395 40.98 17.953C40.6682 17.1847 40.2188 16.5067 39.6226 15.9372C39.0631 15.3677 38.3569 14.9157 37.5406 14.5812C36.7243 14.2738 35.8346 14.1021 34.8441 14.1021C33.881 14.1021 32.9822 14.2648 32.1842 14.6174C31.3863 14.9428 30.68 15.4038 30.1022 15.9733C29.506 16.5428 29.0383 17.2208 28.7264 18.0073C28.4146 18.7937 28.2403 19.6164 28.2403 20.5023C28.2403 21.3972 28.4054 22.2379 28.7264 23.0334C29.0474 23.8199 29.506 24.4979 30.1022 25.0674ZM31.2762 18.9655C31.4413 18.4864 31.7073 18.0706 32.0375 17.718C32.3493 17.3745 32.762 17.0762 33.2298 16.8773C33.7159 16.6784 34.2479 16.57 34.8441 16.57C35.4402 16.57 35.9814 16.6604 36.4583 16.8592C36.9261 17.0581 37.3296 17.3383 37.6507 17.6818C37.9808 18.0344 38.2468 18.4502 38.4119 18.9474C38.577 19.4265 38.6687 19.9328 38.6687 20.5023C38.6687 21.0356 38.577 21.5509 38.4303 22.021C38.2468 22.5001 37.9992 22.9159 37.6873 23.2684C37.348 23.6391 36.9444 23.9283 36.4583 24.1272C35.9905 24.3261 35.4586 24.4346 34.8441 24.4346C34.2479 24.4346 33.7067 24.3261 33.2481 24.1453C32.7804 23.9284 32.3768 23.6481 32.0375 23.3046C31.7073 22.9611 31.4413 22.5362 31.2762 22.0571C31.1111 21.5599 31.0194 21.0537 31.0194 20.5023C31.0194 19.9508 31.1111 19.4356 31.2762 18.9655ZM13.7579 25.1758C14.3541 25.7273 15.042 26.1431 15.8399 26.4595C16.6379 26.7487 17.5276 26.9024 18.4998 26.9024C20.6552 26.9024 22.4437 26.2425 23.8562 24.9227L22.2786 22.9972C21.7925 23.4583 21.2422 23.7837 20.646 24.0458C20.0132 24.2628 19.3619 24.3894 18.6557 24.3894C18.0779 24.3894 17.5367 24.299 17.0598 24.1182C16.5737 23.9193 16.1701 23.6571 15.8124 23.3136C15.4639 22.9882 15.1979 22.5814 14.9961 22.1023C14.8127 21.6232 14.721 21.0989 14.721 20.5113C14.721 19.9418 14.8127 19.4265 14.9961 18.9564C15.1796 18.4773 15.4456 18.0796 15.7941 17.7089C16.1426 17.3654 16.5554 17.1033 17.0415 16.9044C17.5459 16.7236 18.0779 16.6332 18.6924 16.6332C19.3803 16.6332 20.0132 16.7236 20.5726 16.9406C21.1505 17.1214 21.6549 17.4197 22.0768 17.7993L23.6177 15.8016C22.9848 15.2501 22.2603 14.8343 21.4623 14.5541C20.6644 14.2648 19.7747 14.1111 18.8025 14.1111C17.7385 14.1111 16.7755 14.2738 15.9408 14.6264C15.1062 14.9518 14.3816 15.4128 13.7854 16.0004C13.1893 16.588 12.7215 17.266 12.428 18.0525C12.0978 18.8389 11.9419 19.6615 11.9419 20.5474C11.9419 21.5147 12.107 22.3825 12.428 23.169C12.7398 23.9464 13.1984 24.6063 13.7579 25.1758ZM51.5094 24.4255C52.3348 24.4255 52.9402 24.2899 53.3529 24.0549C53.7473 23.8199 53.9491 23.4854 53.9491 23.0605C53.9491 22.717 53.8115 22.4187 53.5364 22.2198C53.2612 22.0119 52.8118 21.8673 52.1789 21.7769L50.262 21.5418C49.0513 21.3701 48.1066 21.0085 47.437 20.4209C46.7675 19.8333 46.4373 18.9926 46.4373 17.8717C46.4373 17.266 46.5565 16.7236 46.8134 16.2626C47.0335 15.7835 47.382 15.3767 47.8131 15.0693C48.235 14.762 48.7761 14.4998 49.3723 14.3552C50.0052 14.1744 50.6747 14.1021 51.4177 14.1021C52.4174 14.1021 53.3529 14.2377 54.1876 14.4908C55.0222 14.753 55.7651 15.1326 56.398 15.666L55.0222 17.6276C54.5269 17.2841 53.9858 17.0039 53.3713 16.8231C52.7567 16.6423 52.1239 16.5519 51.4727 16.5519C50.6564 16.5519 50.0786 16.6604 49.73 16.8592C49.3723 17.0762 49.2072 17.3655 49.2072 17.7542C49.2072 18.0977 49.3448 18.3779 49.6016 18.5406C49.8676 18.7305 50.2712 18.857 50.849 18.9293L52.6742 19.1644C54.0316 19.3452 55.0497 19.752 55.7376 20.4119C56.398 21.0356 56.7373 21.8763 56.7373 22.9249C56.7373 23.5306 56.6181 24.0549 56.3796 24.5521C56.1412 25.0493 55.811 25.4742 55.3616 25.7996C54.903 26.1612 54.3435 26.4233 53.6556 26.6041C52.986 26.803 52.2248 26.8934 51.3535 26.8934C50.3354 26.8934 49.3815 26.7849 48.5468 26.586C47.703 26.3781 46.8684 26.0165 46.0704 25.4832L47.2353 23.2413C47.9232 23.6572 48.6294 23.9735 49.3173 24.1543C50.0052 24.3351 50.7481 24.4255 51.5094 24.4255ZM69.1469 43.7255L72.0728 38.8711H72.2379V47.1335H74.9711V34.8665H71.981L68.4774 40.6339L65.0288 34.8665H61.9745V47.1335H64.6894V38.8711H64.8545L67.8078 43.7255H69.1469ZM64.5976 18.3689H64.4326V26.6403H61.7177V14.3643H64.7627L68.2205 20.1316L71.715 14.3643H74.7051V26.6403H71.981V18.3689H71.8068L68.8901 23.2233H67.551L64.5976 18.3689ZM91.8749 17.953C91.563 17.1847 91.1136 16.5067 90.5174 15.9372C89.958 15.3677 89.2517 14.9157 88.4354 14.5812C87.6191 14.2738 86.7295 14.1021 85.7389 14.1021C84.7758 14.1021 83.877 14.2648 83.079 14.6174C82.2811 14.9428 81.5749 15.4038 80.997 15.9733C80.4009 16.5428 79.9331 17.2208 79.6212 18.0073C79.3094 18.7937 79.1351 19.6164 79.1351 20.5023C79.1351 21.3972 79.3002 22.2379 79.6212 23.0334C79.9331 23.8199 80.4009 24.4979 80.997 25.0674C81.5749 25.6369 82.2811 26.0889 83.079 26.4233C83.877 26.7307 84.7667 26.9024 85.7389 26.9024C86.7203 26.9024 87.6191 26.7397 88.4354 26.3872C89.2334 26.0527 89.9396 25.6007 90.5174 25.0312C91.0953 24.4436 91.5539 23.7656 91.8749 22.9792C92.1867 22.2108 92.361 21.3882 92.361 20.5023C92.361 19.5892 92.1959 18.7395 91.8749 17.953ZM89.3251 22.021C89.1417 22.5001 88.894 22.9159 88.5822 23.2684C88.2428 23.6391 87.8393 23.9283 87.3531 24.1272C86.8854 24.3261 86.3534 24.4346 85.7389 24.4346C85.1427 24.4346 84.6016 24.3261 84.143 24.1453C83.6752 23.9284 83.2717 23.6481 82.9323 23.3046C82.6021 22.9611 82.3361 22.5362 82.171 22.0571C82.0059 21.5599 81.9142 21.0537 81.9142 20.5023C81.9142 19.9508 82.0059 19.4356 82.171 18.9655C82.3361 18.4864 82.6021 18.0706 82.9323 17.718C83.2441 17.3745 83.6569 17.0762 84.1246 16.8773C84.6107 16.6784 85.1427 16.57 85.7389 16.57C86.3351 16.57 86.8762 16.6604 87.3531 16.8592C87.8209 17.0581 88.2245 17.3383 88.5455 17.6818C88.8757 18.0344 89.1417 18.4502 89.3068 18.9474C89.4718 19.4265 89.5636 19.9328 89.5636 20.5023C89.5727 21.0356 89.481 21.5418 89.3251 22.021ZM20.6918 35.3004C21.5265 35.6168 22.2327 36.0326 22.8105 36.5841C23.4067 37.1174 23.8561 37.7773 24.168 38.5095C24.489 39.2418 24.6357 40.0825 24.6357 40.9864C24.6357 41.8904 24.4615 42.695 24.1496 43.4633C23.8378 44.1956 23.37 44.8555 22.7739 45.4069C22.1777 45.9402 21.4715 46.3651 20.6185 46.6725C19.8022 46.9889 18.8483 47.1335 17.8302 47.1335H12.9966V34.8575H17.8852C18.9308 34.8575 19.8572 35.0111 20.6918 35.3004ZM20.701 43.6984C21.0679 43.3639 21.3339 43.0023 21.554 42.5413C21.7374 42.0803 21.8475 41.565 21.8475 40.9955C21.8475 39.8022 21.5173 38.8892 20.8111 38.2655C20.1415 37.6417 19.1418 37.3344 17.8394 37.3344H15.7757V44.6656H17.8577C18.4356 44.6656 18.9492 44.5752 19.4353 44.4125C19.9397 44.2498 20.3708 43.9876 20.701 43.6984ZM33.7985 41.0316H29.2675V43.4905H33.6517L35.9172 47.1425H39.3016L36.2749 42.7492C37.0728 42.4238 37.7057 41.9266 38.1551 41.2848C38.6045 40.6429 38.8246 39.8926 38.8246 39.0519C38.8246 38.4101 38.7146 37.8406 38.4761 37.3344C38.2376 36.8191 37.8983 36.3852 37.4947 36.0145C37.0453 35.6439 36.55 35.3727 35.9538 35.1738C35.3577 34.975 34.7065 34.8846 33.9819 34.8846H29.2951V37.3434H33.8535C34.523 37.3434 35.0458 37.5061 35.4127 37.8225C35.8071 38.1479 35.9905 38.609 35.9905 39.1966C35.9905 39.7841 35.7888 40.2452 35.376 40.5706C34.9725 40.8689 34.4497 41.0316 33.7985 41.0316ZM80.5017 34.8665H90.9944V37.3253H80.5017V34.8665ZM80.5017 47.1335H90.9944V44.6747H82.9965V42.1526H89.9855V39.8565H80.5017V47.1335ZM53.0411 46.8804C52.2248 47.2329 51.3259 47.3957 50.3446 47.3957C49.3815 47.3957 48.4918 47.2329 47.6847 46.9437C46.8868 46.6092 46.1805 46.1572 45.6027 45.5877C45.0065 45.0182 44.5479 44.3492 44.2269 43.5537C43.9059 42.7582 43.7408 41.9175 43.7408 41.0226C43.7408 40.1367 43.9151 39.3141 44.2269 38.5276C44.5388 37.7412 45.0065 37.0632 45.6027 36.4937C46.1805 35.9242 46.8868 35.4631 47.6847 35.1377C48.4827 34.7851 49.3815 34.6224 50.3446 34.6224C51.3351 34.6224 52.2248 34.7942 53.0411 35.1015C53.0457 35.1015 53.0503 35.1038 53.0549 35.1061C53.0594 35.1083 53.064 35.1106 53.0686 35.1106L51.1242 37.1445C50.8765 37.0993 50.6197 37.0722 50.3446 37.0722C49.7484 37.0722 49.2164 37.1807 48.7303 37.3796C48.2625 37.5784 47.8498 37.8768 47.538 38.2203C47.2078 38.5728 46.9418 38.9886 46.7767 39.4678C46.6116 39.9378 46.5199 40.4531 46.5199 41.0045C46.5199 41.556 46.6116 42.0622 46.7767 42.5594L46.7767 42.5594C46.8226 42.6769 46.8684 42.7944 46.9234 42.9029L59.7274 30.6811L55.224 36.5389C55.7651 37.0903 56.187 37.7231 56.4805 38.4463C56.8016 39.2327 56.9667 40.0825 56.9667 40.9955C56.9667 41.8814 56.7924 42.704 56.4805 43.4724C56.1595 44.2588 55.7009 44.9368 55.1231 45.5244C54.5453 46.0939 53.839 46.5459 53.0411 46.8804ZM54.1692 40.9955C54.1692 40.426 54.0775 39.9197 53.9124 39.4406C53.8299 39.1785 53.7106 38.9344 53.5639 38.6994L48.9413 44.7018C49.3632 44.8464 49.8309 44.9278 50.3446 44.9278C50.9591 44.9278 51.491 44.8193 51.9588 44.6204C52.4449 44.4216 52.8485 44.1323 53.1878 43.7617C53.4997 43.4091 53.7473 42.9933 53.9308 42.5142C54.0775 42.0441 54.1692 41.5288 54.1692 40.9955Z" fill="white"/>
</svg>
