<svg width="22" height="25" viewBox="0 0 22 25" fill="none" xmlns="http://www.w3.org/2000/svg">
<path fill-rule="evenodd" clip-rule="evenodd" d="M10.5769 0C16.409 0 21.1538 4.78077 21.1538 10.6577C21.1538 17.8821 12.8769 25 10.5769 25C8.27692 25 0 17.8821 0 10.6577C0 4.78077 4.74487 0 10.5769 0ZM10.5769 1.92308C5.80513 1.92308 1.92308 5.84231 1.92308 10.6577C1.92308 16.7846 9.13333 22.7538 10.5769 23.0718C12.0205 22.7526 19.2308 16.7833 19.2308 10.6577C19.2308 5.84231 15.3487 1.92308 10.5769 1.92308ZM10.5782 6.41026C12.8756 6.41026 14.7449 8.27949 14.7449 10.5782C14.7449 12.8756 12.8756 14.7436 10.5782 14.7436C8.28077 14.7436 6.41154 12.8756 6.41154 10.5782C6.41154 8.27949 8.28077 6.41026 10.5782 6.41026ZM10.5782 8.33333C9.34103 8.33333 8.33462 9.33974 8.33462 10.5782C8.33462 11.8154 9.34103 12.8205 10.5782 12.8205C11.8154 12.8205 12.8218 11.8154 12.8218 10.5782C12.8218 9.33974 11.8154 8.33333 10.5782 8.33333Z" fill="#DDDDDD"/>
</svg>
