<svg width="21" height="20" viewBox="0 0 21 20" fill="none" xmlns="http://www.w3.org/2000/svg">
<path fill-rule="evenodd" clip-rule="evenodd" d="M9.63304 0C14.9446 0 19.2651 4.21587 19.2651 9.39884C19.2651 11.8441 18.3034 14.0744 16.7296 15.7482L19.8263 18.7636C20.1161 19.0464 20.1171 19.5039 19.8273 19.7867C19.6829 19.9295 19.492 20 19.3021 20C19.1132 20 18.9232 19.9295 18.7778 19.7886L15.6438 16.739C13.9951 18.0273 11.9047 18.7986 9.63304 18.7986C4.32146 18.7986 0 14.5818 0 9.39884C0 4.21587 4.32146 0 9.63304 0ZM9.63304 1.44776C5.13947 1.44776 1.48368 5.01407 1.48368 9.39884C1.48368 13.7836 5.13947 17.3509 9.63304 17.3509C14.1256 17.3509 17.7814 13.7836 17.7814 9.39884C17.7814 5.01407 14.1256 1.44776 9.63304 1.44776Z" fill="#1D1F24"/>
</svg>
